<svg width="800" height="400" viewBox="0 0 800 400" xmlns="http://www.w3.org/2000/svg"><mask id="satori_om-id"><rect x="0" y="0" width="800" height="400" fill="#fff"/></mask><rect x="0" y="0" width="800" height="400" fill="#fff"/><mask id="satori_om-id-0"><rect x="0" y="81" width="800" height="238" fill="#fff"/></mask><rect x="0" y="81" width="800" height="238" fill="#f9fafb"/><mask id="satori_om-id-0-0"><rect x="0" y="81" width="800" height="238" fill="#fff"/></mask><mask id="satori_om-id-0-0-0"><rect x="32" y="113" width="177" height="34" fill="#fff"/></mask><clipPath id="satori_cp-id-0-0-0-0"><rect x="32" y="113" width="34" height="34"/></clipPath><mask id="satori_om-id-0-0-0-0"><rect x="32" y="113" width="34" height="34" fill="#fff"/></mask><image x="32" y="113" width="34" height="34" href="data:image/svg+xml;utf8,%3Csvg  xmlns=%22http://www.w3.org/2000/svg%22 fill=%22none%22 stroke=%22black%22 stroke-width=%222%22 stroke-linecap=%22round%22 stroke-linejoin=%22round%22 tw=%22%22 width=%2234%22 height=%2234%22 viewBox=%220 0 24 24%22%3E%3Cpath d=%22m8 3 4 8 5-5 5 15H2L8 3z%22%3E%3C/path%3E%3C/svg%3E" preserveAspectRatio="none" clip-path="url(#satori_cp-id-0-0-0-0)" mask="url(#satori_om-id-0-0-0-0)"/><mask id="satori_om-id-0-0-0-0-0"><rect x="32" y="113" width="0" height="34" fill="#fff"/></mask><mask id="satori_om-id-0-0-0-1"><rect x="66" y="114" width="143" height="32" fill="#fff"/></mask><path fill="black" d="M82.2 126.7L82.2 126.7L80.0 126.7Q79.9 125.8 79.4 125.1Q78.9 124.4 78.3 124.0Q77.6 123.5 76.8 123.3Q76.0 123.0 75.1 123.0L75.1 123.0Q73.6 123.0 72.3 123.8Q71.0 124.6 70.2 126.2Q69.5 127.7 69.5 130L69.5 130Q69.5 132.3 70.2 133.8Q71.0 135.4 72.3 136.2Q73.6 137.0 75.1 137.0L75.1 137.0Q76.0 137.0 76.8 136.8Q77.6 136.5 78.3 136.0Q78.9 135.6 79.4 134.9Q79.9 134.2 80.0 133.3L80.0 133.3L82.2 133.3Q81.9 134.6 81.3 135.7Q80.7 136.7 79.7 137.5Q78.8 138.2 77.6 138.6Q76.5 139.0 75.1 139.0L75.1 139.0Q72.9 139.0 71.2 137.9Q69.4 136.8 68.4 134.8Q67.4 132.8 67.4 130L67.4 130Q67.4 127.2 68.4 125.2Q69.4 123.2 71.2 122.1Q72.9 121.0 75.1 121.0L75.1 121.0Q76.5 121.0 77.6 121.4Q78.8 121.8 79.7 122.5Q80.7 123.3 81.3 124.3Q81.9 125.4 82.2 126.7ZM93.5 133.4L93.5 133.4L93.5 125.6L95.6 125.6L95.6 138.7L93.5 138.7L93.5 136.5L93.4 136.5Q92.9 137.5 92.0 138.2Q91.0 138.9 89.5 138.9L89.5 138.9Q88.3 138.9 87.3 138.4Q86.4 137.8 85.8 136.7Q85.3 135.6 85.3 134.0L85.3 134.0L85.3 125.6L87.3 125.6L87.3 133.8Q87.3 135.3 88.1 136.1Q88.9 137.0 90.2 137.0L90.2 137.0Q90.9 137.0 91.7 136.6Q92.5 136.2 93.0 135.4Q93.5 134.6 93.5 133.4ZM108.5 128.6L108.5 128.6L106.7 129.1Q106.5 128.6 106.2 128.2Q105.9 127.8 105.3 127.5Q104.8 127.2 103.9 127.2L103.9 127.2Q102.7 127.2 101.9 127.8Q101.1 128.3 101.1 129.1L101.1 129.1Q101.1 129.9 101.6 130.3Q102.2 130.8 103.3 131.1L103.3 131.1L105.3 131.5Q107.0 132.0 107.9 132.8Q108.8 133.7 108.8 135.1L108.8 135.1Q108.8 136.2 108.1 137.1Q107.5 138.0 106.3 138.5Q105.2 139 103.6 139L103.6 139Q101.6 139 100.3 138.1Q99.0 137.3 98.7 135.6L98.7 135.6L100.6 135.1Q100.8 136.2 101.6 136.7Q102.4 137.2 103.6 137.2L103.6 137.2Q105.0 137.2 105.8 136.6Q106.7 136.0 106.7 135.2L106.7 135.2Q106.7 134.5 106.2 134.0Q105.7 133.6 104.7 133.3L104.7 133.3L102.5 132.8Q100.7 132.4 99.9 131.5Q99.1 130.6 99.1 129.3L99.1 129.3Q99.1 128.1 99.7 127.3Q100.3 126.4 101.4 126.0Q102.5 125.5 103.9 125.5L103.9 125.5Q105.8 125.5 106.9 126.3Q108.0 127.2 108.5 128.6ZM110.7 125.6L117.5 125.6L117.5 127.3L110.7 127.3L110.7 125.6ZM112.7 135.5L112.7 122.5L114.7 122.5L114.7 135.0Q114.7 135.8 114.9 136.3Q115.2 136.7 115.6 136.8Q116.0 137.0 116.4 137.0L116.4 137.0Q116.8 137.0 117.0 136.9Q117.2 136.9 117.3 136.9L117.3 136.9L117.7 138.7Q117.5 138.7 117.1 138.8Q116.8 138.9 116.2 138.9L116.2 138.9Q115.4 138.9 114.5 138.5Q113.7 138.2 113.2 137.4Q112.7 136.7 112.7 135.5L112.7 135.5ZM125.7 139L125.7 139Q123.9 139 122.6 138.2Q121.3 137.3 120.5 135.8Q119.8 134.3 119.8 132.3L119.8 132.3Q119.8 130.2 120.5 128.7Q121.3 127.2 122.6 126.3Q123.9 125.5 125.7 125.5L125.7 125.5Q127.5 125.5 128.8 126.3Q130.1 127.2 130.9 128.7Q131.6 130.2 131.6 132.3L131.6 132.3Q131.6 134.3 130.9 135.8Q130.1 137.3 128.8 138.2Q127.5 139 125.7 139ZM125.7 137.2L125.7 137.2Q127.0 137.2 127.9 136.5Q128.8 135.8 129.2 134.7Q129.6 133.6 129.6 132.3L129.6 132.3Q129.6 130.9 129.2 129.8Q128.8 128.7 127.9 128.0Q127.0 127.3 125.7 127.3L125.7 127.3Q124.3 127.3 123.5 128.0Q122.6 128.7 122.2 129.8Q121.8 130.9 121.8 132.3L121.8 132.3Q121.8 133.6 122.2 134.7Q122.6 135.8 123.5 136.5Q124.3 137.2 125.7 137.2ZM136.7 138.7L134.7 138.7L134.7 125.6L136.6 125.6L136.6 127.7L136.8 127.7Q137.2 126.6 138.1 126.0Q139.0 125.5 140.3 125.5L140.3 125.5Q141.6 125.5 142.5 126.0Q143.3 126.6 143.8 127.7L143.8 127.7L144.0 127.7Q144.5 126.7 145.5 126.1Q146.5 125.5 147.9 125.5L147.9 125.5Q149.6 125.5 150.8 126.6Q151.9 127.7 151.9 130.0L151.9 130.0L151.9 138.7L149.9 138.7L149.9 130.0Q149.9 128.5 149.1 127.9Q148.3 127.3 147.2 127.3L147.2 127.3Q145.8 127.3 145.1 128.1Q144.3 128.9 144.3 130.2L144.3 130.2L144.3 138.7L142.3 138.7L142.3 129.8Q142.3 128.6 141.5 128.0Q140.8 127.3 139.7 127.3L139.7 127.3Q138.9 127.3 138.2 127.7Q137.5 128.1 137.1 128.8Q136.7 129.6 136.7 130.5L136.7 130.5L136.7 138.7ZM169.9 126.7L167.8 126.7Q167.5 125.9 167.0 125.2Q166.6 124.5 165.9 124.0Q165.3 123.5 164.5 123.3Q163.7 123.0 162.8 123.0L162.8 123.0Q161.2 123.0 160.0 123.8Q158.7 124.6 157.9 126.2Q157.2 127.7 157.2 130L157.2 130Q157.2 132.3 158.0 133.8Q158.7 135.4 160.0 136.2Q161.3 137.0 162.9 137.0L162.9 137.0Q164.4 137.0 165.6 136.3Q166.7 135.7 167.4 134.5Q168 133.3 168 131.7L168 131.7L168.6 131.9L163.4 131.9L163.4 130L170.0 130L170.0 131.9Q170.0 134.0 169.1 135.6Q168.2 137.2 166.6 138.1Q165 139.0 162.9 139.0L162.9 139.0Q160.6 139.0 158.9 137.9Q157.1 136.8 156.1 134.8Q155.1 132.8 155.1 130L155.1 130Q155.1 127.9 155.7 126.3Q156.3 124.6 157.3 123.4Q158.3 122.3 159.7 121.7Q161.1 121.0 162.8 121.0L162.8 121.0Q164.2 121.0 165.4 121.4Q166.6 121.9 167.5 122.6Q168.4 123.4 169.1 124.4Q169.7 125.5 169.9 126.7L169.9 126.7ZM178.9 139L178.9 139Q177.0 139 175.6 138.2Q174.2 137.3 173.5 135.8Q172.8 134.3 172.8 132.3L172.8 132.3Q172.8 130.3 173.5 128.7Q174.2 127.2 175.6 126.3Q176.9 125.5 178.7 125.5L178.7 125.5Q179.7 125.5 180.7 125.8Q181.7 126.1 182.5 126.9Q183.3 127.7 183.8 128.9Q184.3 130.2 184.3 132.0L184.3 132.0L184.3 132.9L174.2 132.9L174.2 131.1L182.3 131.1Q182.3 130.0 181.8 129.1Q181.4 128.3 180.6 127.8Q179.8 127.3 178.7 127.3L178.7 127.3Q177.5 127.3 176.6 127.9Q175.7 128.5 175.3 129.4Q174.8 130.3 174.8 131.4L174.8 131.4L174.8 132.6Q174.8 134.1 175.3 135.1Q175.8 136.1 176.7 136.7Q177.7 137.2 178.9 137.2L178.9 137.2Q179.7 137.2 180.3 137.0Q181.0 136.7 181.4 136.3Q181.9 135.8 182.1 135.1L182.1 135.1L184.1 135.7Q183.8 136.7 183.1 137.4Q182.3 138.2 181.3 138.6Q180.2 139 178.9 139ZM191.2 139.0L191.2 139.0Q190.0 139.0 189.0 138.6Q187.9 138.1 187.3 137.2Q186.8 136.3 186.8 135.0L186.8 135.0Q186.8 133.9 187.2 133.2Q187.6 132.5 188.4 132.1Q189.1 131.7 190.0 131.5Q190.9 131.3 191.8 131.2L191.8 131.2Q193.0 131.0 193.8 130.9Q194.5 130.8 194.9 130.6Q195.2 130.5 195.2 130.0L195.2 130.0L195.2 129.9Q195.2 128.6 194.5 127.9Q193.8 127.2 192.4 127.2L192.4 127.2Q191.0 127.2 190.2 127.9Q189.4 128.5 189.0 129.2L189.0 129.2L187.1 128.5Q187.6 127.3 188.5 126.7Q189.3 126.0 190.4 125.7Q191.4 125.5 192.4 125.5L192.4 125.5Q193.0 125.5 193.8 125.6Q194.7 125.8 195.4 126.2Q196.2 126.7 196.7 127.6Q197.2 128.5 197.2 130.1L197.2 130.1L197.2 138.7L195.2 138.7L195.2 137.0L195.1 137.0Q194.9 137.4 194.4 137.9Q193.9 138.4 193.2 138.7Q192.4 139.0 191.2 139.0ZM191.5 137.2L191.5 137.2Q192.7 137.2 193.5 136.8Q194.4 136.3 194.8 135.5Q195.2 134.8 195.2 134.0L195.2 134.0L195.2 132.1Q195.1 132.3 194.6 132.4Q194.2 132.5 193.7 132.6Q193.1 132.7 192.6 132.8Q192.1 132.9 191.7 132.9L191.7 132.9Q190.9 133 190.3 133.2Q189.6 133.5 189.2 133.9Q188.8 134.3 188.8 135.1L188.8 135.1Q188.8 136.2 189.5 136.7Q190.3 137.2 191.5 137.2ZM202.9 138.7L200.9 138.7L200.9 125.6L202.8 125.6L202.8 127.6L203.0 127.6Q203.3 126.6 204.3 126.0Q205.2 125.4 206.4 125.4L206.4 125.4Q206.6 125.4 206.9 125.4Q207.3 125.4 207.4 125.5L207.4 125.5L207.4 127.5Q207.3 127.5 207.0 127.4Q206.6 127.4 206.2 127.4L206.2 127.4Q205.3 127.4 204.5 127.8Q203.8 128.2 203.3 128.9Q202.9 129.6 202.9 130.4L202.9 130.4L202.9 138.7Z "/><mask id="satori_om-id-0-0-1"><rect x="32" y="167" width="736" height="100" fill="#fff"/></mask><mask id="satori_om-id-0-0-1-0"><rect x="32" y="167" width="736" height="80" fill="#fff"/></mask><path fill="#4f46e5" d="M34.3 200.1L34.3 173.9L41.1 173.9L48.3 191.5L48.6 191.5L55.8 173.9L62.7 173.9L62.7 200.1L57.3 200.1L57.3 183.0L57.1 183.0L50.3 200.0L46.6 200.0L39.9 183.0L39.6 183.0L39.6 200.1L34.3 200.1ZM71.8 200.5L71.8 200.5Q69.9 200.5 68.5 199.8Q67.0 199.1 66.1 197.8Q65.3 196.5 65.3 194.6L65.3 194.6Q65.3 193.0 65.9 191.9Q66.5 190.7 67.5 190.1Q68.6 189.4 69.9 189.0Q71.2 188.7 72.7 188.6L72.7 188.6Q74.4 188.4 75.4 188.2Q76.5 188.1 76.9 187.7Q77.4 187.4 77.4 186.8L77.4 186.8L77.4 186.7Q77.4 185.5 76.7 184.8Q75.9 184.2 74.5 184.2L74.5 184.2Q73.0 184.2 72.2 184.8Q71.3 185.5 71.0 186.4L71.0 186.4L66.0 186.0Q66.4 184.2 67.5 182.9Q68.6 181.6 70.4 180.9Q72.2 180.2 74.5 180.2L74.5 180.2Q76.2 180.2 77.7 180.6Q79.2 181.0 80.3 181.8Q81.5 182.6 82.2 183.8Q82.9 185.1 82.9 186.8L82.9 186.8L82.9 200.1L77.7 200.1L77.7 197.4L77.5 197.4Q77.1 198.3 76.3 199.0Q75.5 199.7 74.4 200.1Q73.3 200.5 71.8 200.5ZM73.4 196.7L73.4 196.7Q74.6 196.7 75.5 196.2Q76.4 195.7 76.9 194.9Q77.5 194.1 77.5 193.1L77.5 193.1L77.5 191.0Q77.2 191.2 76.8 191.3Q76.3 191.4 75.8 191.5Q75.2 191.6 74.7 191.7Q74.1 191.8 73.7 191.9L73.7 191.9Q72.7 192.0 72.0 192.3Q71.3 192.6 70.9 193.1Q70.5 193.7 70.5 194.4L70.5 194.4Q70.5 195.5 71.3 196.1Q72.1 196.7 73.4 196.7ZM94.7 190.3L91.1 194.4L91.1 187.9L91.9 187.9L98.2 180.5L104.5 180.5L96.0 190.3L94.7 190.3ZM91.6 200.1L86.2 200.1L86.2 173.9L91.6 173.9L91.6 200.1ZM104.8 200.1L98.5 200.1L92.7 191.5L96.3 187.7L104.8 200.1ZM114.4 200.5L114.4 200.5Q111.3 200.5 109.2 199.2Q107.0 198.0 105.8 195.7Q104.6 193.5 104.6 190.4L104.6 190.4Q104.6 187.3 105.8 185.0Q107.0 182.8 109.1 181.5Q111.3 180.2 114.1 180.2L114.1 180.2Q116.1 180.2 117.8 180.8Q119.5 181.4 120.7 182.7Q122.0 183.9 122.7 185.8Q123.4 187.7 123.4 190.2L123.4 190.2L123.4 191.7L106.8 191.7L106.8 188.3L118.3 188.3Q118.3 187.1 117.7 186.2Q117.2 185.3 116.3 184.8Q115.4 184.3 114.2 184.3L114.2 184.3Q113.0 184.3 112.0 184.8Q111.1 185.4 110.6 186.4Q110.0 187.3 110.0 188.5L110.0 188.5L110.0 191.7Q110.0 193.1 110.5 194.2Q111.1 195.3 112.1 195.8Q113.1 196.4 114.5 196.4L114.5 196.4Q115.4 196.4 116.1 196.2Q116.9 195.9 117.4 195.4Q117.9 194.9 118.2 194.1L118.2 194.1L123.3 194.5Q122.9 196.3 121.7 197.6Q120.5 199.0 118.7 199.7Q116.8 200.5 114.4 200.5Z M137.7 207.5L137.7 207.5Q136.6 207.5 135.7 207.3Q134.8 207.1 134.2 206.9L134.2 206.9L135.5 202.8Q136.4 203.1 137.2 203.1Q138.0 203.2 138.5 202.8Q139.1 202.4 139.5 201.5L139.5 201.5L139.8 200.7L132.7 180.5L138.5 180.5L142.5 194.9L142.7 194.9L146.8 180.5L152.6 180.5L145.0 202.2Q144.4 203.8 143.5 205.0Q142.5 206.2 141.1 206.8Q139.7 207.5 137.7 207.5ZM162.7 200.5L162.7 200.5Q159.7 200.5 157.6 199.2Q155.4 197.9 154.2 195.6Q153.0 193.4 153.0 190.3L153.0 190.3Q153.0 187.3 154.2 185.0Q155.4 182.7 157.6 181.5Q159.7 180.2 162.7 180.2L162.7 180.2Q165.7 180.2 167.9 181.5Q170.0 182.7 171.2 185.0Q172.4 187.3 172.4 190.3L172.4 190.3Q172.4 193.4 171.2 195.6Q170.0 197.9 167.9 199.2Q165.7 200.5 162.7 200.5ZM162.7 196.3L162.7 196.3Q164.1 196.3 165.0 195.5Q165.9 194.7 166.4 193.4Q166.8 192.0 166.8 190.3L166.8 190.3Q166.8 188.6 166.4 187.3Q165.9 185.9 165.0 185.1Q164.1 184.4 162.7 184.4L162.7 184.4Q161.4 184.4 160.4 185.1Q159.5 185.9 159.0 187.3Q158.6 188.6 158.6 190.3L158.6 190.3Q158.6 192.0 159.0 193.4Q159.5 194.7 160.4 195.5Q161.4 196.3 162.7 196.3ZM187.6 191.7L187.6 191.7L187.6 180.5L193.1 180.5L193.1 200.1L187.8 200.1L187.8 196.5L187.6 196.5Q187.0 198.3 185.4 199.3Q183.9 200.3 181.7 200.3L181.7 200.3Q179.7 200.3 178.2 199.5Q176.7 198.6 175.9 196.9Q175.0 195.3 175.0 193.0L175.0 193.0L175.0 180.5L180.5 180.5L180.5 192.0Q180.5 193.7 181.4 194.7Q182.3 195.7 183.9 195.7L183.9 195.7Q184.9 195.7 185.7 195.3Q186.6 194.8 187.1 193.9Q187.6 193.0 187.6 191.7ZM202.0 200.1L196.5 200.1L196.5 180.5L201.8 180.5L201.8 183.9L202.0 183.9Q202.5 182.1 203.8 181.1Q205.1 180.2 206.7 180.2L206.7 180.2Q207.1 180.2 207.6 180.2Q208.1 180.3 208.4 180.4L208.4 180.4L208.4 185.2Q208.0 185.1 207.4 185.0Q206.7 184.9 206.1 184.9L206.1 184.9Q204.9 184.9 204.0 185.4Q203.0 185.9 202.5 186.9Q202.0 187.8 202.0 189.0L202.0 189.0L202.0 200.1Z M241.5 182.4L235.9 182.4Q235.6 181.4 235.1 180.7Q234.7 180.0 234.0 179.5Q233.3 179.0 232.4 178.7Q231.5 178.4 230.4 178.4L230.4 178.4Q228.4 178.4 226.9 179.4Q225.4 180.4 224.5 182.3Q223.7 184.2 223.7 187.0L223.7 187.0Q223.7 189.7 224.5 191.6Q225.3 193.5 226.9 194.5Q228.4 195.6 230.5 195.6L230.5 195.6Q232.3 195.6 233.7 194.9Q235.0 194.2 235.7 193.0Q236.4 191.8 236.4 190.1L236.4 190.1L237.6 190.2L230.8 190.2L230.8 186.1L241.8 186.1L241.8 189.4Q241.8 192.8 240.3 195.3Q238.8 197.8 236.3 199.1Q233.7 200.4 230.4 200.4L230.4 200.4Q226.8 200.4 224.0 198.8Q221.2 197.2 219.6 194.2Q218.1 191.2 218.1 187.0L218.1 187.0Q218.1 183.8 219.0 181.3Q219.9 178.8 221.6 177.1Q223.3 175.4 225.5 174.5Q227.7 173.6 230.3 173.6L230.3 173.6Q232.5 173.6 234.5 174.2Q236.4 174.8 237.9 176.0Q239.4 177.2 240.3 178.8Q241.3 180.4 241.5 182.4L241.5 182.4ZM253.9 200.5L253.9 200.5Q250.8 200.5 248.7 199.2Q246.5 198.0 245.3 195.7Q244.1 193.5 244.1 190.4L244.1 190.4Q244.1 187.3 245.3 185.0Q246.5 182.8 248.6 181.5Q250.8 180.2 253.6 180.2L253.6 180.2Q255.6 180.2 257.3 180.8Q259.0 181.4 260.2 182.7Q261.5 183.9 262.2 185.8Q262.9 187.7 262.9 190.2L262.9 190.2L262.9 191.7L246.3 191.7L246.3 188.3L257.7 188.3Q257.7 187.1 257.2 186.2Q256.7 185.3 255.8 184.8Q254.9 184.3 253.7 184.3L253.7 184.3Q252.5 184.3 251.5 184.8Q250.6 185.4 250.1 186.4Q249.5 187.3 249.5 188.5L249.5 188.5L249.5 191.7Q249.5 193.1 250.0 194.2Q250.6 195.3 251.6 195.8Q252.6 196.4 254.0 196.4L254.0 196.4Q254.9 196.4 255.6 196.2Q256.4 195.9 256.9 195.4Q257.4 194.9 257.7 194.1L257.7 194.1L262.8 194.5Q262.4 196.3 261.2 197.6Q260.0 199.0 258.2 199.7Q256.3 200.5 253.9 200.5ZM271.1 200.5L271.1 200.5Q269.2 200.5 267.8 199.8Q266.3 199.1 265.5 197.8Q264.6 196.5 264.6 194.6L264.6 194.6Q264.6 193.0 265.2 191.9Q265.8 190.7 266.8 190.1Q267.9 189.4 269.2 189.0Q270.5 188.7 272.0 188.6L272.0 188.6Q273.7 188.4 274.7 188.2Q275.8 188.1 276.3 187.7Q276.7 187.4 276.7 186.8L276.7 186.8L276.7 186.7Q276.7 185.5 276.0 184.8Q275.2 184.2 273.8 184.2L273.8 184.2Q272.4 184.2 271.5 184.8Q270.6 185.5 270.3 186.4L270.3 186.4L265.3 186.0Q265.7 184.2 266.8 182.9Q267.9 181.6 269.7 180.9Q271.5 180.2 273.9 180.2L273.9 180.2Q275.5 180.2 277.0 180.6Q278.5 181.0 279.7 181.8Q280.8 182.6 281.5 183.8Q282.2 185.1 282.2 186.8L282.2 186.8L282.2 200.1L277.0 200.1L277.0 197.4L276.9 197.4Q276.4 198.3 275.6 199.0Q274.8 199.7 273.7 200.1Q272.6 200.5 271.1 200.5ZM272.7 196.7L272.7 196.7Q273.9 196.7 274.8 196.2Q275.7 195.7 276.3 194.9Q276.8 194.1 276.8 193.1L276.8 193.1L276.8 191.0Q276.5 191.2 276.1 191.3Q275.6 191.4 275.1 191.5Q274.5 191.6 274.0 191.7Q273.4 191.8 273.0 191.9L273.0 191.9Q272.0 192.0 271.3 192.3Q270.6 192.6 270.2 193.1Q269.8 193.7 269.8 194.4L269.8 194.4Q269.8 195.5 270.6 196.1Q271.4 196.7 272.7 196.7ZM291.0 200.1L285.5 200.1L285.5 180.5L290.8 180.5L290.8 183.9L291.0 183.9Q291.5 182.1 292.8 181.1Q294.1 180.2 295.7 180.2L295.7 180.2Q296.1 180.2 296.6 180.2Q297.1 180.3 297.4 180.4L297.4 180.4L297.4 185.2Q297.1 185.1 296.4 185.0Q295.7 184.9 295.1 184.9L295.1 184.9Q293.9 184.9 293.0 185.4Q292.1 185.9 291.5 186.9Q291.0 187.8 291.0 189.0L291.0 189.0L291.0 200.1ZM315.7 186.1L315.7 186.1L310.7 186.4Q310.6 185.7 310.1 185.2Q309.7 184.7 309.0 184.4Q308.3 184.1 307.4 184.1L307.4 184.1Q306.1 184.1 305.3 184.6Q304.4 185.1 304.4 186.0L304.4 186.0Q304.4 186.7 305.0 187.2Q305.5 187.7 306.9 188.0L306.9 188.0L310.4 188.7Q313.3 189.3 314.7 190.6Q316.1 191.9 316.1 194.0L316.1 194.0Q316.1 195.9 315.0 197.4Q313.9 198.9 311.9 199.7Q309.9 200.5 307.4 200.5L307.4 200.5Q303.5 200.5 301.2 198.8Q298.9 197.2 298.5 194.4L298.5 194.4L303.8 194.1Q304.1 195.3 305.0 195.9Q305.9 196.5 307.4 196.5L307.4 196.5Q308.8 196.5 309.7 196.0Q310.6 195.4 310.6 194.6L310.6 194.6Q310.6 193.8 310.0 193.3Q309.3 192.9 308.1 192.6L308.1 192.6L304.7 191.9Q301.8 191.3 300.4 189.9Q299.0 188.5 299.0 186.3L299.0 186.3Q299.0 184.4 300.0 183.0Q301.0 181.7 302.9 180.9Q304.8 180.2 307.3 180.2L307.3 180.2Q311.0 180.2 313.2 181.8Q315.3 183.3 315.7 186.1Z M326.1 173.9L331.6 173.9L331.6 200.1L326.1 200.1L326.1 173.9ZM343.9 200.5L343.9 200.5Q340.9 200.5 338.7 199.2Q336.6 197.9 335.4 195.6Q334.2 193.4 334.2 190.3L334.2 190.3Q334.2 187.3 335.4 185.0Q336.6 182.7 338.7 181.5Q340.9 180.2 343.9 180.2L343.9 180.2Q346.8 180.2 349.0 181.5Q351.2 182.7 352.4 185.0Q353.5 187.3 353.5 190.3L353.5 190.3Q353.5 193.4 352.4 195.6Q351.2 197.9 349.0 199.2Q346.8 200.5 343.9 200.5ZM343.9 196.3L343.9 196.3Q345.3 196.3 346.2 195.5Q347.1 194.7 347.5 193.4Q348.0 192.0 348.0 190.3L348.0 190.3Q348.0 188.6 347.5 187.3Q347.1 185.9 346.2 185.1Q345.3 184.4 343.9 184.4L343.9 184.4Q342.5 184.4 341.6 185.1Q340.7 185.9 340.2 187.3Q339.7 188.6 339.7 190.3L339.7 190.3Q339.7 192.0 340.2 193.4Q340.7 194.7 341.6 195.5Q342.5 196.3 343.9 196.3ZM365.1 200.5L365.1 200.5Q362.1 200.5 359.9 199.2Q357.7 197.9 356.6 195.6Q355.4 193.4 355.4 190.3L355.4 190.3Q355.4 187.3 356.6 185.0Q357.7 182.7 359.9 181.5Q362.1 180.2 365.1 180.2L365.1 180.2Q368.0 180.2 370.2 181.5Q372.4 182.7 373.6 185.0Q374.7 187.3 374.7 190.3L374.7 190.3Q374.7 193.4 373.6 195.6Q372.4 197.9 370.2 199.2Q368.0 200.5 365.1 200.5ZM365.1 196.3L365.1 196.3Q366.4 196.3 367.3 195.5Q368.3 194.7 368.7 193.4Q369.2 192.0 369.2 190.3L369.2 190.3Q369.2 188.6 368.7 187.3Q368.3 185.9 367.3 185.1Q366.4 184.4 365.1 184.4L365.1 184.4Q363.7 184.4 362.8 185.1Q361.9 185.9 361.4 187.3Q360.9 188.6 360.9 190.3L360.9 190.3Q360.9 192.0 361.4 193.4Q361.9 194.7 362.8 195.5Q363.7 196.3 365.1 196.3ZM385.9 190.3L382.3 194.4L382.3 187.9L383.1 187.9L389.4 180.5L395.7 180.5L387.2 190.3L385.9 190.3ZM382.8 200.1L377.4 200.1L377.4 173.9L382.8 173.9L382.8 200.1ZM396.0 200.1L389.7 200.1L383.9 191.5L387.5 187.7L396.0 200.1Z M411.0 173.9L416.2 173.9L416.2 200.1L410.7 200.1L410.7 179.2L410.5 179.2L404.5 182.9L404.5 178.0L411.0 173.9ZM431.8 200.7L431.8 200.7Q428.5 200.7 426.1 199.0Q423.8 197.4 422.5 194.4Q421.2 191.3 421.2 187.0L421.2 187.0Q421.2 182.7 422.5 179.7Q423.8 176.7 426.1 175.1Q428.5 173.6 431.8 173.6L431.8 173.6Q435.1 173.6 437.5 175.1Q439.8 176.7 441.1 179.7Q442.4 182.7 442.4 187.0L442.4 187.0Q442.4 191.3 441.1 194.4Q439.8 197.4 437.5 199.1Q435.1 200.7 431.8 200.7ZM431.8 196.1L431.8 196.1Q434.0 196.1 435.4 193.8Q436.7 191.6 436.7 187.0L436.7 187.0Q436.7 184.0 436.1 182.1Q435.5 180.1 434.4 179.1Q433.3 178.1 431.8 178.1L431.8 178.1Q429.6 178.1 428.2 180.3Q426.9 182.6 426.9 187.0L426.9 187.0Q426.9 190.0 427.5 192.1Q428.1 194.1 429.2 195.1Q430.3 196.1 431.8 196.1ZM444.4 180.5L450.0 180.5L453.6 187.3L457.3 180.5L462.9 180.5L457.2 190.3L463.1 200.1L457.5 200.1L453.6 193.3L449.8 200.1L444.2 200.1L450.0 190.3L444.4 180.5Z M478.3 200.1L472.8 200.1L472.8 173.9L483.1 173.9Q486.1 173.9 488.2 175.0Q490.3 176.2 491.4 178.2Q492.5 180.2 492.5 182.8L492.5 182.8Q492.5 185.4 491.4 187.4Q490.2 189.4 488.1 190.5Q486.0 191.6 483.0 191.6L483.0 191.6L476.4 191.6L476.4 187.2L482.1 187.2Q483.7 187.2 484.7 186.6Q485.7 186.1 486.3 185.1Q486.8 184.1 486.8 182.8L486.8 182.8Q486.8 181.5 486.3 180.5Q485.7 179.5 484.7 179.0Q483.6 178.4 482.0 178.4L482.0 178.4L478.3 178.4L478.3 200.1ZM503.7 200.5L503.7 200.5Q500.7 200.5 498.5 199.2Q496.3 198.0 495.1 195.7Q494.0 193.5 494.0 190.4L494.0 190.4Q494.0 187.3 495.1 185.0Q496.3 182.8 498.5 181.5Q500.6 180.2 503.5 180.2L503.5 180.2Q505.4 180.2 507.1 180.8Q508.8 181.4 510.0 182.7Q511.3 183.9 512.0 185.8Q512.7 187.7 512.7 190.2L512.7 190.2L512.7 191.7L496.1 191.7L496.1 188.3L507.6 188.3Q507.6 187.1 507.1 186.2Q506.6 185.3 505.7 184.8Q504.8 184.3 503.6 184.3L503.6 184.3Q502.3 184.3 501.4 184.8Q500.4 185.4 499.9 186.4Q499.4 187.3 499.3 188.5L499.3 188.5L499.3 191.7Q499.3 193.1 499.9 194.2Q500.4 195.3 501.4 195.8Q502.4 196.4 503.8 196.4L503.8 196.4Q504.7 196.4 505.5 196.2Q506.2 195.9 506.7 195.4Q507.3 194.9 507.6 194.1L507.6 194.1L512.6 194.5Q512.2 196.3 511.0 197.6Q509.9 199.0 508.0 199.7Q506.1 200.5 503.7 200.5ZM520.8 200.1L515.4 200.1L515.4 180.5L520.6 180.5L520.6 183.9L520.9 183.9Q521.4 182.1 522.7 181.1Q523.9 180.2 525.6 180.2L525.6 180.2Q526.0 180.2 526.5 180.2Q526.9 180.3 527.3 180.4L527.3 180.4L527.3 185.2Q526.9 185.1 526.2 185.0Q525.5 184.9 525.0 184.9L525.0 184.9Q523.8 184.9 522.8 185.4Q521.9 185.9 521.4 186.9Q520.8 187.8 520.8 189.0L520.8 189.0L520.8 200.1ZM545.5 186.1L545.5 186.1L540.5 186.4Q540.4 185.7 540.0 185.2Q539.6 184.7 538.9 184.4Q538.2 184.1 537.3 184.1L537.3 184.1Q536.0 184.1 535.1 184.6Q534.2 185.1 534.2 186.0L534.2 186.0Q534.2 186.7 534.8 187.2Q535.4 187.7 536.7 188.0L536.7 188.0L540.3 188.7Q543.2 189.3 544.6 190.6Q546.0 191.9 546.0 194.0L546.0 194.0Q546.0 195.9 544.8 197.4Q543.7 198.9 541.7 199.7Q539.8 200.5 537.2 200.5L537.2 200.5Q533.3 200.5 531.0 198.8Q528.7 197.2 528.3 194.4L528.3 194.4L533.7 194.1Q533.9 195.3 534.8 195.9Q535.8 196.5 537.2 196.5L537.2 196.5Q538.7 196.5 539.5 196.0Q540.4 195.4 540.4 194.6L540.4 194.6Q540.4 193.8 539.8 193.3Q539.2 192.9 537.9 192.6L537.9 192.6L534.5 191.9Q531.6 191.3 530.2 189.9Q528.8 188.5 528.8 186.3L528.8 186.3Q528.8 184.4 529.9 183.0Q530.9 181.7 532.8 180.9Q534.6 180.2 537.2 180.2L537.2 180.2Q540.9 180.2 543.0 181.8Q545.2 183.3 545.5 186.1ZM557.4 200.5L557.4 200.5Q554.4 200.5 552.2 199.2Q550.1 197.9 548.9 195.6Q547.7 193.4 547.7 190.3L547.7 190.3Q547.7 187.3 548.9 185.0Q550.1 182.7 552.2 181.5Q554.4 180.2 557.4 180.2L557.4 180.2Q560.4 180.2 562.5 181.5Q564.7 182.7 565.9 185.0Q567.0 187.3 567.0 190.3L567.0 190.3Q567.0 193.4 565.9 195.6Q564.7 197.9 562.5 199.2Q560.4 200.5 557.4 200.5ZM557.4 196.3L557.4 196.3Q558.8 196.3 559.7 195.5Q560.6 194.7 561.0 193.4Q561.5 192.0 561.5 190.3L561.5 190.3Q561.5 188.6 561.0 187.3Q560.6 185.9 559.7 185.1Q558.8 184.4 557.4 184.4L557.4 184.4Q556.0 184.4 555.1 185.1Q554.2 185.9 553.7 187.3Q553.3 188.6 553.3 190.3L553.3 190.3Q553.3 192.0 553.7 193.4Q554.2 194.7 555.1 195.5Q556.0 196.3 557.4 196.3ZM575.1 188.7L575.1 188.7L575.1 200.1L569.7 200.1L569.7 180.5L574.9 180.5L574.9 183.9L575.1 183.9Q575.8 182.2 577.3 181.2Q578.8 180.2 581.0 180.2L581.0 180.2Q583.1 180.2 584.6 181.1Q586.1 182.0 587.0 183.6Q587.8 185.3 587.8 187.6L587.8 187.6L587.8 200.1L582.4 200.1L582.4 188.6Q582.4 186.8 581.4 185.7Q580.5 184.7 578.9 184.7L578.9 184.7Q577.8 184.7 576.9 185.2Q576.1 185.7 575.6 186.6Q575.2 187.5 575.1 188.7ZM596.8 200.5L596.8 200.5Q594.9 200.5 593.4 199.8Q592.0 199.1 591.1 197.8Q590.3 196.5 590.3 194.6L590.3 194.6Q590.3 193.0 590.9 191.9Q591.5 190.7 592.5 190.1Q593.5 189.4 594.9 189.0Q596.2 188.7 597.6 188.6L597.6 188.6Q599.4 188.4 600.4 188.2Q601.4 188.1 601.9 187.7Q602.4 187.4 602.4 186.8L602.4 186.8L602.4 186.7Q602.4 185.5 601.6 184.8Q600.9 184.2 599.5 184.2L599.5 184.2Q598.0 184.2 597.1 184.8Q596.3 185.5 596.0 186.4L596.0 186.4L591.0 186.0Q591.3 184.2 592.5 182.9Q593.6 181.6 595.4 180.9Q597.2 180.2 599.5 180.2L599.5 180.2Q601.1 180.2 602.6 180.6Q604.1 181.0 605.3 181.8Q606.5 182.6 607.2 183.8Q607.8 185.1 607.8 186.8L607.8 186.8L607.8 200.1L602.7 200.1L602.7 197.4L602.5 197.4Q602.1 198.3 601.3 199.0Q600.5 199.7 599.4 200.1Q598.2 200.5 596.8 200.5ZM598.3 196.7L598.3 196.7Q599.5 196.7 600.5 196.2Q601.4 195.7 601.9 194.9Q602.4 194.1 602.4 193.1L602.4 193.1L602.4 191.0Q602.2 191.2 601.7 191.3Q601.3 191.4 600.7 191.5Q600.2 191.6 599.6 191.7Q599.1 191.8 598.6 191.9L598.6 191.9Q597.7 192.0 597.0 192.3Q596.3 192.6 595.9 193.1Q595.5 193.7 595.5 194.4L595.5 194.4Q595.5 195.5 596.3 196.1Q597.1 196.7 598.3 196.7ZM611.2 173.9L616.6 173.9L616.6 200.1L611.2 200.1L611.2 173.9ZM621.5 196.5L626.0 196.5L625.8 197.9Q625.7 199.6 625.2 201.3Q624.7 203.0 624.2 204.3Q623.7 205.7 623.4 206.5L623.4 206.5L619.9 206.5Q620.1 205.7 620.4 204.4Q620.8 203.0 621.1 201.4Q621.3 199.7 621.4 197.9L621.4 197.9L621.5 196.5Z M45.5 240.1L34.3 240.1L34.3 213.9L44.8 213.9Q47.6 213.9 49.6 214.8Q51.5 215.6 52.5 217.1Q53.5 218.7 53.5 220.6L53.5 220.6Q53.5 222.2 52.8 223.3Q52.2 224.5 51.2 225.2Q50.1 225.9 48.7 226.2L48.7 226.2L48.7 226.5Q50.2 226.6 51.5 227.3Q52.8 228.1 53.7 229.5Q54.5 230.9 54.5 232.9L54.5 232.9Q54.5 234.9 53.4 236.6Q52.4 238.2 50.4 239.1Q48.4 240.1 45.5 240.1L45.5 240.1ZM39.8 228.6L39.8 235.6L44.3 235.6Q46.6 235.6 47.7 234.7Q48.8 233.8 48.8 232.3L48.8 232.3Q48.8 231.2 48.2 230.4Q47.7 229.6 46.7 229.1Q45.8 228.6 44.5 228.6L44.5 228.6L39.8 228.6ZM39.8 218.4L39.8 224.9L43.9 224.9Q45.1 224.9 45.9 224.5Q46.8 224.1 47.3 223.3Q47.9 222.6 47.9 221.5L47.9 221.5Q47.9 220.1 46.9 219.3Q45.9 218.4 44.0 218.4L44.0 218.4L39.8 218.4ZM66.0 240.5L66.0 240.5Q63.0 240.5 60.8 239.2Q58.6 238.0 57.4 235.7Q56.3 233.5 56.3 230.4L56.3 230.4Q56.3 227.3 57.4 225.0Q58.6 222.8 60.8 221.5Q62.9 220.2 65.8 220.2L65.8 220.2Q67.7 220.2 69.4 220.8Q71.1 221.4 72.4 222.7Q73.6 223.9 74.3 225.8Q75.0 227.7 75.0 230.2L75.0 230.2L75.0 231.7L58.4 231.7L58.4 228.3L69.9 228.3Q69.9 227.1 69.4 226.2Q68.9 225.3 68.0 224.8Q67.1 224.3 65.9 224.3L65.9 224.3Q64.6 224.3 63.7 224.8Q62.7 225.4 62.2 226.4Q61.7 227.3 61.7 228.5L61.7 228.5L61.7 231.7Q61.7 233.1 62.2 234.2Q62.7 235.3 63.7 235.8Q64.7 236.4 66.1 236.4L66.1 236.4Q67.0 236.4 67.8 236.2Q68.5 235.9 69.1 235.4Q69.6 234.9 69.9 234.1L69.9 234.1L74.9 234.5Q74.5 236.3 73.3 237.6Q72.2 239.0 70.3 239.7Q68.4 240.5 66.0 240.5ZM83.3 240.5L83.3 240.5Q81.4 240.5 79.9 239.8Q78.5 239.1 77.6 237.8Q76.8 236.5 76.8 234.6L76.8 234.6Q76.8 233.0 77.4 231.9Q78.0 230.7 79.0 230.1Q80.0 229.4 81.4 229.0Q82.7 228.7 84.1 228.6L84.1 228.6Q85.8 228.4 86.9 228.2Q87.9 228.1 88.4 227.7Q88.9 227.4 88.9 226.8L88.9 226.8L88.9 226.7Q88.9 225.5 88.1 224.8Q87.4 224.2 86.0 224.2L86.0 224.2Q84.5 224.2 83.6 224.8Q82.8 225.5 82.5 226.4L82.5 226.4L77.4 226.0Q77.8 224.2 79.0 222.9Q80.1 221.6 81.9 220.9Q83.7 220.2 86.0 220.2L86.0 220.2Q87.6 220.2 89.1 220.6Q90.6 221.0 91.8 221.8Q93.0 222.6 93.7 223.8Q94.3 225.1 94.3 226.8L94.3 226.8L94.3 240.1L89.2 240.1L89.2 237.4L89.0 237.4Q88.5 238.3 87.8 239.0Q87.0 239.7 85.8 240.1Q84.7 240.5 83.3 240.5ZM84.8 236.7L84.8 236.7Q86.0 236.7 87.0 236.2Q87.9 235.7 88.4 234.9Q88.9 234.1 88.9 233.1L88.9 233.1L88.9 231.0Q88.7 231.2 88.2 231.3Q87.8 231.4 87.2 231.5Q86.7 231.6 86.1 231.7Q85.6 231.8 85.1 231.9L85.1 231.9Q84.2 232.0 83.5 232.3Q82.8 232.6 82.4 233.1Q82.0 233.7 82.0 234.4L82.0 234.4Q82.0 235.5 82.8 236.1Q83.6 236.7 84.8 236.7ZM110.3 231.7L110.3 231.7L110.3 220.5L115.7 220.5L115.7 240.1L110.5 240.1L110.5 236.5L110.3 236.5Q109.6 238.3 108.1 239.3Q106.5 240.3 104.3 240.3L104.3 240.3Q102.3 240.3 100.9 239.5Q99.4 238.6 98.5 236.9Q97.7 235.3 97.7 233.0L97.7 233.0L97.7 220.5L103.1 220.5L103.1 232.0Q103.1 233.7 104.0 234.7Q105.0 235.7 106.5 235.7L106.5 235.7Q107.5 235.7 108.4 235.3Q109.2 234.8 109.7 233.9Q110.3 233.0 110.3 231.7ZM117.8 220.5L129.6 220.5L129.6 224.5L117.8 224.5L117.8 220.5ZM120.5 234.8L120.5 215.8L125.9 215.8L125.9 234.1Q125.9 234.8 126.1 235.2Q126.4 235.6 126.8 235.8Q127.2 236.0 127.7 236.0L127.7 236.0Q128.1 236.0 128.5 235.9Q128.9 235.8 129.1 235.8L129.1 235.8L130.0 239.8Q129.5 240.0 128.8 240.1Q128.1 240.3 127.0 240.4L127.0 240.4Q125.0 240.4 123.6 239.8Q122.1 239.2 121.3 238.0Q120.4 236.7 120.5 234.8L120.5 234.8ZM137.7 240.1L132.2 240.1L132.2 220.5L137.7 220.5L137.7 240.1ZM135.0 217.9L135.0 217.9Q133.8 217.9 132.9 217.1Q132.0 216.3 132.0 215.2L132.0 215.2Q132.0 214.0 132.9 213.2Q133.8 212.4 135.0 212.4L135.0 212.4Q136.2 212.4 137.1 213.2Q137.9 214.0 137.9 215.2L137.9 215.2Q137.9 216.3 137.1 217.1Q136.2 217.9 135.0 217.9ZM139.6 220.5L151.7 220.5L151.7 224.5L139.6 224.5L139.6 220.5ZM147.8 240.1L142.3 240.1L142.3 219.0Q142.3 216.9 143.2 215.5Q144.0 214.1 145.5 213.4Q146.9 212.7 148.8 212.7L148.8 212.7Q150.0 212.7 151.1 212.9Q152.1 213.1 152.6 213.2L152.6 213.2L151.7 217.3Q151.3 217.2 150.9 217.1Q150.4 217.0 149.9 217.0L149.9 217.0Q148.7 217.0 148.3 217.6Q147.8 218.1 147.8 219.1L147.8 219.1L147.8 240.1ZM166.7 231.7L166.7 231.7L166.7 220.5L172.2 220.5L172.2 240.1L166.9 240.1L166.9 236.5L166.7 236.5Q166.1 238.3 164.5 239.3Q163.0 240.3 160.8 240.3L160.8 240.3Q158.8 240.3 157.3 239.5Q155.8 238.6 155.0 236.9Q154.1 235.3 154.1 233.0L154.1 233.0L154.1 220.5L159.6 220.5L159.6 232.0Q159.6 233.7 160.5 234.7Q161.4 235.7 163.0 235.7L163.0 235.7Q163.9 235.7 164.8 235.3Q165.7 234.8 166.2 233.9Q166.7 233.0 166.7 231.7ZM175.6 213.9L181.0 213.9L181.0 240.1L175.6 240.1L175.6 213.9Z M197.5 240.5L197.5 240.5Q195.7 240.5 194.2 239.8Q192.7 239.1 191.9 237.8Q191.0 236.5 191.0 234.6L191.0 234.6Q191.0 233.0 191.6 231.9Q192.2 230.7 193.3 230.1Q194.3 229.4 195.6 229.0Q196.9 228.7 198.4 228.6L198.4 228.6Q200.1 228.4 201.2 228.2Q202.2 228.1 202.7 227.7Q203.2 227.4 203.2 226.8L203.2 226.8L203.2 226.7Q203.2 225.5 202.4 224.8Q201.6 224.2 200.2 224.2L200.2 224.2Q198.8 224.2 197.9 224.8Q197.0 225.5 196.7 226.4L196.7 226.4L191.7 226.0Q192.1 224.2 193.2 222.9Q194.3 221.6 196.1 220.9Q197.9 220.2 200.3 220.2L200.3 220.2Q201.9 220.2 203.4 220.6Q204.9 221.0 206.1 221.8Q207.2 222.6 207.9 223.8Q208.6 225.1 208.6 226.8L208.6 226.8L208.6 240.1L203.4 240.1L203.4 237.4L203.3 237.4Q202.8 238.3 202.0 239.0Q201.2 239.7 200.1 240.1Q199.0 240.5 197.5 240.5ZM199.1 236.7L199.1 236.7Q200.3 236.7 201.2 236.2Q202.1 235.7 202.7 234.9Q203.2 234.1 203.2 233.1L203.2 233.1L203.2 231.0Q202.9 231.2 202.5 231.3Q202.1 231.4 201.5 231.5Q201.0 231.6 200.4 231.7Q199.9 231.8 199.4 231.9L199.4 231.9Q198.4 232.0 197.7 232.3Q197.0 232.6 196.6 233.1Q196.2 233.7 196.2 234.4L196.2 234.4Q196.2 235.5 197.0 236.1Q197.8 236.7 199.1 236.7ZM217.4 228.7L217.4 228.7L217.4 240.1L211.9 240.1L211.9 220.5L217.1 220.5L217.1 223.9L217.4 223.9Q218.0 222.2 219.5 221.2Q221.1 220.2 223.3 220.2L223.3 220.2Q225.3 220.2 226.8 221.1Q228.3 222.0 229.2 223.6Q230.0 225.3 230.0 227.6L230.0 227.6L230.0 240.1L224.6 240.1L224.6 228.6Q224.6 226.8 223.7 225.7Q222.7 224.7 221.1 224.7L221.1 224.7Q220.0 224.7 219.2 225.2Q218.3 225.7 217.9 226.6Q217.4 227.5 217.4 228.7ZM240.7 240.4L240.7 240.4Q238.4 240.4 236.6 239.3Q234.8 238.1 233.7 235.8Q232.7 233.6 232.7 230.3L232.7 230.3Q232.7 226.9 233.8 224.7Q234.9 222.4 236.7 221.3Q238.5 220.2 240.6 220.2L240.6 220.2Q242.3 220.2 243.4 220.8Q244.5 221.3 245.2 222.1Q245.9 223.0 246.2 223.8L246.2 223.8L246.4 223.8L246.4 213.9L251.8 213.9L251.8 240.1L246.5 240.1L246.5 236.9L246.2 236.9Q245.8 237.8 245.1 238.6Q244.4 239.4 243.3 239.9Q242.2 240.4 240.7 240.4ZM242.4 236.1L242.4 236.1Q243.7 236.1 244.6 235.4Q245.5 234.6 246.0 233.3Q246.5 232.0 246.5 230.3L246.5 230.3Q246.5 228.5 246.0 227.2Q245.5 225.9 244.6 225.2Q243.7 224.5 242.4 224.5L242.4 224.5Q241.0 224.5 240.1 225.3Q239.2 226.0 238.7 227.3Q238.2 228.6 238.2 230.3L238.2 230.3Q238.2 232.0 238.7 233.3Q239.2 234.6 240.1 235.3Q241.0 236.1 242.4 236.1Z M286.0 223.1L286.0 223.1L280.4 223.1Q280.3 222.0 279.8 221.1Q279.3 220.3 278.6 219.7Q277.9 219.1 276.9 218.8Q275.9 218.4 274.8 218.4L274.8 218.4Q272.8 218.4 271.3 219.5Q269.8 220.5 268.9 222.4Q268.1 224.3 268.1 227L268.1 227Q268.1 229.8 268.9 231.7Q269.8 233.6 271.3 234.6Q272.8 235.6 274.8 235.6L274.8 235.6Q275.9 235.6 276.8 235.3Q277.8 235.0 278.5 234.4Q279.3 233.8 279.8 233.0Q280.2 232.2 280.4 231.1L280.4 231.1L286.0 231.2Q285.8 233.0 285.0 234.6Q284.1 236.3 282.6 237.6Q281.2 238.9 279.2 239.7Q277.2 240.4 274.7 240.4L274.7 240.4Q271.2 240.4 268.4 238.9Q265.7 237.3 264.1 234.3Q262.5 231.3 262.5 227L262.5 227Q262.5 222.7 264.1 219.7Q265.7 216.7 268.5 215.1Q271.2 213.6 274.7 213.6L274.7 213.6Q276.9 213.6 278.9 214.2Q280.8 214.8 282.4 216.1Q283.9 217.3 284.8 219.0Q285.8 220.8 286.0 223.1ZM294.5 240.1L289.0 240.1L289.0 220.5L294.3 220.5L294.3 223.9L294.5 223.9Q295.0 222.1 296.3 221.1Q297.6 220.2 299.2 220.2L299.2 220.2Q299.6 220.2 300.1 220.2Q300.6 220.3 300.9 220.4L300.9 220.4L300.9 225.2Q300.5 225.1 299.9 225.0Q299.2 224.9 298.6 224.9L298.6 224.9Q297.4 224.9 296.5 225.4Q295.5 225.9 295.0 226.9Q294.5 227.8 294.5 229.0L294.5 229.0L294.5 240.1ZM310.9 240.5L310.9 240.5Q307.8 240.5 305.6 239.2Q303.5 238.0 302.3 235.7Q301.1 233.5 301.1 230.4L301.1 230.4Q301.1 227.3 302.3 225.0Q303.5 222.8 305.6 221.5Q307.7 220.2 310.6 220.2L310.6 220.2Q312.6 220.2 314.3 220.8Q315.9 221.4 317.2 222.7Q318.5 223.9 319.2 225.8Q319.9 227.7 319.9 230.2L319.9 230.2L319.9 231.7L303.3 231.7L303.3 228.3L314.7 228.3Q314.7 227.1 314.2 226.2Q313.7 225.3 312.8 224.8Q311.9 224.3 310.7 224.3L310.7 224.3Q309.5 224.3 308.5 224.8Q307.6 225.4 307.0 226.4Q306.5 227.3 306.5 228.5L306.5 228.5L306.5 231.7Q306.5 233.1 307.0 234.2Q307.6 235.3 308.6 235.8Q309.6 236.4 310.9 236.4L310.9 236.4Q311.9 236.4 312.6 236.2Q313.4 235.9 313.9 235.4Q314.4 234.9 314.7 234.1L314.7 234.1L319.8 234.5Q319.4 236.3 318.2 237.6Q317.0 239.0 315.1 239.7Q313.3 240.5 310.9 240.5ZM328.1 240.5L328.1 240.5Q326.2 240.5 324.8 239.8Q323.3 239.1 322.5 237.8Q321.6 236.5 321.6 234.6L321.6 234.6Q321.6 233.0 322.2 231.9Q322.8 230.7 323.8 230.1Q324.9 229.4 326.2 229.0Q327.5 228.7 329.0 228.6L329.0 228.6Q330.7 228.4 331.7 228.2Q332.8 228.1 333.3 227.7Q333.7 227.4 333.7 226.8L333.7 226.8L333.7 226.7Q333.7 225.5 333.0 224.8Q332.2 224.2 330.8 224.2L330.8 224.2Q329.3 224.2 328.5 224.8Q327.6 225.5 327.3 226.4L327.3 226.4L322.3 226.0Q322.7 224.2 323.8 222.9Q324.9 221.6 326.7 220.9Q328.5 220.2 330.8 220.2L330.8 220.2Q332.5 220.2 334.0 220.6Q335.5 221.0 336.7 221.8Q337.8 222.6 338.5 223.8Q339.2 225.1 339.2 226.8L339.2 226.8L339.2 240.1L334.0 240.1L334.0 237.4L333.9 237.4Q333.4 238.3 332.6 239.0Q331.8 239.7 330.7 240.1Q329.6 240.5 328.1 240.5ZM329.7 236.7L329.7 236.7Q330.9 236.7 331.8 236.2Q332.7 235.7 333.2 234.9Q333.8 234.1 333.8 233.1L333.8 233.1L333.8 231.0Q333.5 231.2 333.1 231.3Q332.6 231.4 332.1 231.5Q331.5 231.6 331.0 231.7Q330.4 231.8 330.0 231.9L330.0 231.9Q329.0 232.0 328.3 232.3Q327.6 232.6 327.2 233.1Q326.8 233.7 326.8 234.4L326.8 234.4Q326.8 235.5 327.6 236.1Q328.4 236.7 329.7 236.7ZM341.1 220.5L353.0 220.5L353.0 224.5L341.1 224.5L341.1 220.5ZM343.8 234.8L343.8 215.8L349.3 215.8L349.3 234.1Q349.3 234.8 349.5 235.2Q349.7 235.6 350.1 235.8Q350.6 236.0 351.1 236.0L351.1 236.0Q351.5 236.0 351.9 235.9Q352.3 235.8 352.5 235.8L352.5 235.8L353.3 239.8Q352.9 240.0 352.2 240.1Q351.4 240.3 350.4 240.4L350.4 240.4Q348.4 240.4 346.9 239.8Q345.4 239.2 344.6 238.0Q343.8 236.7 343.8 234.8L343.8 234.8ZM361.0 240.1L355.6 240.1L355.6 220.5L361.0 220.5L361.0 240.1ZM358.3 217.9L358.3 217.9Q357.1 217.9 356.3 217.1Q355.4 216.3 355.4 215.2L355.4 215.2Q355.4 214.0 356.3 213.2Q357.1 212.4 358.3 212.4L358.3 212.4Q359.5 212.4 360.4 213.2Q361.3 214.0 361.3 215.2L361.3 215.2Q361.3 216.3 360.4 217.1Q359.5 217.9 358.3 217.9ZM377.0 220.5L382.8 220.5L375.9 240.1L369.8 240.1L362.9 220.5L368.7 220.5L372.8 234.5L373.0 234.5L377.0 220.5ZM393.0 240.5L393.0 240.5Q389.9 240.5 387.8 239.2Q385.6 238.0 384.4 235.7Q383.2 233.5 383.2 230.4L383.2 230.4Q383.2 227.3 384.4 225.0Q385.6 222.8 387.7 221.5Q389.9 220.2 392.8 220.2L392.8 220.2Q394.7 220.2 396.4 220.8Q398.1 221.4 399.3 222.7Q400.6 223.9 401.3 225.8Q402.0 227.7 402.0 230.2L402.0 230.2L402.0 231.7L385.4 231.7L385.4 228.3L396.9 228.3Q396.9 227.1 396.4 226.2Q395.8 225.3 394.9 224.8Q394.0 224.3 392.9 224.3L392.9 224.3Q391.6 224.3 390.7 224.8Q389.7 225.4 389.2 226.4Q388.6 227.3 388.6 228.5L388.6 228.5L388.6 231.7Q388.6 233.1 389.2 234.2Q389.7 235.3 390.7 235.8Q391.7 236.4 393.1 236.4L393.1 236.4Q394.0 236.4 394.7 236.2Q395.5 235.9 396.0 235.4Q396.6 234.9 396.8 234.1L396.8 234.1L401.9 234.5Q401.5 236.3 400.3 237.6Q399.1 239.0 397.3 239.7Q395.4 240.5 393.0 240.5Z "/><mask id="satori_om-id-0-0-1-1"><rect x="32" y="247" width="736" height="20" fill="#fff"/></mask><path fill="#9ca3af" d="M41.9 255.5L41.9 255.5L39.7 255.5Q39.6 255.1 39.4 254.7Q39.3 254.4 39.0 254.2Q38.7 253.9 38.3 253.8Q37.9 253.7 37.5 253.7L37.5 253.7Q36.7 253.7 36.1 254.1Q35.5 254.5 35.2 255.2Q34.9 255.9 34.9 257L34.9 257Q34.9 258.1 35.2 258.8Q35.5 259.6 36.1 259.9Q36.7 260.3 37.5 260.3L37.5 260.3Q37.9 260.3 38.3 260.2Q38.7 260.1 38.9 259.9Q39.2 259.7 39.4 259.3Q39.6 259.0 39.7 258.6L39.7 258.6L41.9 258.6Q41.8 259.3 41.4 260.0Q41.1 260.6 40.5 261.1Q40.0 261.6 39.2 261.9Q38.4 262.2 37.4 262.2L37.4 262.2Q36.1 262.2 35.0 261.6Q33.9 261.0 33.3 259.8Q32.7 258.7 32.7 257L32.7 257Q32.7 255.3 33.3 254.2Q34.0 253.0 35.0 252.4Q36.1 251.8 37.4 251.8L37.4 251.8Q38.3 251.8 39.1 252.0Q39.9 252.3 40.4 252.7Q41.0 253.2 41.4 253.9Q41.8 254.6 41.9 255.5ZM44.6 262.1L42.5 262.1L42.5 254.5L44.5 254.5L44.5 255.8L44.6 255.8Q44.8 255.1 45.3 254.7Q45.8 254.3 46.4 254.3L46.4 254.3Q46.6 254.3 46.8 254.4Q47.0 254.4 47.1 254.4L47.1 254.4L47.1 256.3Q47.0 256.3 46.7 256.2Q46.4 256.2 46.2 256.2L46.2 256.2Q45.7 256.2 45.4 256.4Q45.0 256.6 44.8 256.9Q44.6 257.3 44.6 257.8L44.6 257.8L44.6 262.1ZM50.4 262.2L50.4 262.2Q49.2 262.2 48.4 261.8Q47.5 261.3 47.1 260.4Q46.6 259.5 46.6 258.3L46.6 258.3Q46.6 257.1 47.1 256.2Q47.5 255.3 48.4 254.9Q49.2 254.4 50.3 254.4L50.3 254.4Q51.1 254.4 51.7 254.6Q52.4 254.8 52.9 255.3Q53.4 255.8 53.7 256.5Q53.9 257.3 53.9 258.2L53.9 258.2L53.9 258.8L47.5 258.8L47.5 257.5L51.9 257.5Q51.9 257.0 51.7 256.7Q51.5 256.3 51.2 256.1Q50.8 255.9 50.4 255.9L50.4 255.9Q49.9 255.9 49.5 256.2Q49.1 256.4 48.9 256.7Q48.7 257.1 48.7 257.6L48.7 257.6L48.7 258.8Q48.7 259.4 48.9 259.8Q49.1 260.2 49.5 260.4Q49.9 260.7 50.5 260.7L50.5 260.7Q50.8 260.7 51.1 260.6Q51.4 260.5 51.6 260.3Q51.8 260.1 51.9 259.8L51.9 259.8L53.9 259.9Q53.7 260.6 53.3 261.1Q52.8 261.7 52.1 261.9Q51.4 262.2 50.4 262.2ZM56.6 262.2L56.6 262.2Q55.9 262.2 55.3 262.0Q54.7 261.7 54.4 261.2Q54.0 260.7 54.0 260.0L54.0 260.0Q54.0 259.3 54.3 258.9Q54.5 258.5 54.9 258.2Q55.3 257.9 55.8 257.8Q56.4 257.7 56.9 257.6L56.9 257.6Q57.6 257.5 58.0 257.5Q58.4 257.4 58.6 257.3Q58.8 257.2 58.8 256.9L58.8 256.9L58.8 256.9Q58.8 256.4 58.5 256.2Q58.2 255.9 57.6 255.9L57.6 255.9Q57.1 255.9 56.7 256.2Q56.4 256.4 56.3 256.8L56.3 256.8L54.3 256.6Q54.5 255.9 54.9 255.4Q55.3 254.9 56.0 254.6Q56.7 254.4 57.6 254.4L57.6 254.4Q58.3 254.4 58.9 254.5Q59.4 254.7 59.9 255.0Q60.4 255.3 60.6 255.8Q60.9 256.3 60.9 256.9L60.9 256.9L60.9 262.1L58.9 262.1L58.9 261.0L58.8 261.0Q58.6 261.4 58.3 261.7Q58.0 261.9 57.6 262.1Q57.2 262.2 56.6 262.2ZM57.2 260.8L57.2 260.8Q57.7 260.8 58.0 260.6Q58.4 260.4 58.6 260.1Q58.8 259.8 58.8 259.4L58.8 259.4L58.8 258.6Q58.7 258.6 58.5 258.7Q58.3 258.7 58.1 258.8Q57.9 258.8 57.7 258.8Q57.5 258.9 57.3 258.9L57.3 258.9Q56.9 258.9 56.7 259.1Q56.4 259.2 56.2 259.4Q56.1 259.6 56.1 259.9L56.1 259.9Q56.1 260.3 56.4 260.5Q56.7 260.8 57.2 260.8ZM61.1 254.5L65.7 254.5L65.7 256.0L61.1 256.0L61.1 254.5ZM62.1 260.0L62.1 252.6L64.3 252.6L64.3 259.7Q64.3 260.0 64.3 260.2Q64.4 260.4 64.6 260.4Q64.8 260.5 65.0 260.5L65.0 260.5Q65.1 260.5 65.3 260.5Q65.4 260.4 65.5 260.4L65.5 260.4L65.8 262.0Q65.7 262.0 65.4 262.1Q65.1 262.2 64.7 262.2L64.7 262.2Q63.9 262.2 63.3 262.0Q62.8 261.8 62.5 261.3Q62.1 260.8 62.1 260.0L62.1 260.0ZM69.6 262.2L69.6 262.2Q68.4 262.2 67.5 261.8Q66.7 261.3 66.2 260.4Q65.8 259.5 65.8 258.3L65.8 258.3Q65.8 257.1 66.2 256.2Q66.7 255.3 67.5 254.9Q68.4 254.4 69.5 254.4L69.5 254.4Q70.2 254.4 70.9 254.6Q71.5 254.8 72.0 255.3Q72.5 255.8 72.8 256.5Q73.1 257.3 73.1 258.2L73.1 258.2L73.1 258.8L66.6 258.8L66.6 257.5L71.1 257.5Q71.1 257.0 70.9 256.7Q70.7 256.3 70.3 256.1Q70.0 255.9 69.5 255.9L69.5 255.9Q69.0 255.9 68.7 256.2Q68.3 256.4 68.1 256.7Q67.9 257.1 67.9 257.6L67.9 257.6L67.9 258.8Q67.9 259.4 68.1 259.8Q68.3 260.2 68.7 260.4Q69.1 260.7 69.6 260.7L69.6 260.7Q70.0 260.7 70.3 260.6Q70.5 260.5 70.8 260.3Q71.0 260.1 71.1 259.8L71.1 259.8L73.0 259.9Q72.9 260.6 72.4 261.1Q72.0 261.7 71.2 261.9Q70.5 262.2 69.6 262.2Z M79.8 262.2L79.8 262.2Q78.6 262.2 77.8 261.7Q76.9 261.2 76.5 260.4Q76.0 259.5 76.0 258.3L76.0 258.3Q76.0 257.1 76.5 256.2Q76.9 255.4 77.8 254.9Q78.6 254.4 79.8 254.4L79.8 254.4Q80.8 254.4 81.5 254.7Q82.3 255.1 82.7 255.7Q83.2 256.4 83.2 257.3L83.2 257.3L81.2 257.3Q81.1 256.7 80.8 256.4Q80.4 256.0 79.8 256.0L79.8 256.0Q79.3 256.0 79.0 256.3Q78.6 256.5 78.4 257.0Q78.2 257.6 78.2 258.3L78.2 258.3Q78.2 259.0 78.4 259.5Q78.6 260.0 79.0 260.3Q79.3 260.6 79.8 260.6L79.8 260.6Q80.2 260.6 80.5 260.4Q80.8 260.3 81.0 260.0Q81.1 259.7 81.2 259.3L81.2 259.3L83.2 259.3Q83.2 260.2 82.7 260.8Q82.3 261.5 81.6 261.9Q80.8 262.2 79.8 262.2ZM88.6 258.8L88.6 258.8L88.6 254.5L90.7 254.5L90.7 262.1L88.6 262.1L88.6 260.7L88.6 260.7Q88.3 261.4 87.7 261.8Q87.1 262.2 86.2 262.2L86.2 262.2Q85.5 262.2 84.9 261.8Q84.3 261.5 84.0 260.9Q83.7 260.2 83.7 259.3L83.7 259.3L83.7 254.5L85.8 254.5L85.8 258.9Q85.8 259.6 86.1 260.0Q86.5 260.4 87.1 260.4L87.1 260.4Q87.5 260.4 87.8 260.2Q88.2 260.0 88.4 259.7Q88.6 259.4 88.6 258.8ZM97.8 256.6L97.8 256.6L95.9 256.8Q95.8 256.5 95.7 256.3Q95.5 256.1 95.2 256.0Q95.0 255.9 94.6 255.9L94.6 255.9Q94.1 255.9 93.8 256.1Q93.4 256.3 93.4 256.6L93.4 256.6Q93.4 256.9 93.7 257.1Q93.9 257.3 94.4 257.4L94.4 257.4L95.8 257.7Q96.9 257.9 97.4 258.4Q98.0 258.9 98.0 259.7L98.0 259.7Q98.0 260.5 97.6 261.0Q97.1 261.6 96.4 261.9Q95.6 262.2 94.6 262.2L94.6 262.2Q93.1 262.2 92.2 261.6Q91.3 261.0 91.1 259.9L91.1 259.9L93.2 259.8Q93.3 260.2 93.7 260.5Q94.0 260.7 94.6 260.7L94.6 260.7Q95.2 260.7 95.5 260.5Q95.8 260.3 95.8 259.9L95.8 259.9Q95.8 259.6 95.6 259.5Q95.4 259.3 94.9 259.2L94.9 259.2L93.5 258.9Q92.4 258.7 91.9 258.1Q91.3 257.6 91.3 256.7L91.3 256.7Q91.3 256.0 91.7 255.5Q92.1 254.9 92.9 254.6Q93.6 254.4 94.6 254.4L94.6 254.4Q96.0 254.4 96.9 255.0Q97.7 255.6 97.8 256.6ZM97.9 254.5L102.5 254.5L102.5 256.0L97.9 256.0L97.9 254.5ZM98.9 260.0L98.9 252.6L101.1 252.6L101.1 259.7Q101.1 260.0 101.1 260.2Q101.2 260.4 101.4 260.4Q101.6 260.5 101.8 260.5L101.8 260.5Q101.9 260.5 102.1 260.5Q102.2 260.4 102.3 260.4L102.3 260.4L102.6 262.0Q102.5 262.0 102.2 262.1Q101.9 262.2 101.5 262.2L101.5 262.2Q100.7 262.2 100.1 262.0Q99.6 261.8 99.3 261.3Q98.9 260.8 98.9 260.0L98.9 260.0ZM106.3 262.2L106.3 262.2Q105.2 262.2 104.3 261.7Q103.5 261.3 103.0 260.4Q102.6 259.5 102.6 258.3L102.6 258.3Q102.6 257.1 103.0 256.2Q103.5 255.3 104.3 254.8Q105.2 254.4 106.3 254.4L106.3 254.4Q107.5 254.4 108.3 254.8Q109.2 255.3 109.6 256.2Q110.1 257.1 110.1 258.3L110.1 258.3Q110.1 259.5 109.6 260.4Q109.2 261.3 108.3 261.7Q107.5 262.2 106.3 262.2ZM106.4 260.6L106.4 260.6Q106.9 260.6 107.2 260.3Q107.6 260.0 107.8 259.5Q107.9 259.0 107.9 258.3L107.9 258.3Q107.9 257.6 107.8 257.1Q107.6 256.6 107.2 256.3Q106.9 256.0 106.4 256.0L106.4 256.0Q105.8 256.0 105.5 256.3Q105.1 256.6 104.9 257.1Q104.7 257.6 104.7 258.3L104.7 258.3Q104.7 259.0 104.9 259.5Q105.1 260.0 105.5 260.3Q105.8 260.6 106.4 260.6ZM112.7 262.1L110.6 262.1L110.6 254.5L112.6 254.5L112.6 255.8L112.7 255.8Q112.9 255.1 113.5 254.7Q114.0 254.4 114.8 254.4L114.8 254.4Q115.6 254.4 116.2 254.7Q116.7 255.1 116.9 255.8L116.9 255.8L117.0 255.8Q117.2 255.1 117.8 254.8Q118.4 254.4 119.3 254.4L119.3 254.4Q120.3 254.4 121.0 255.0Q121.7 255.7 121.7 257.0L121.7 257.0L121.7 262.1L119.6 262.1L119.6 257.4Q119.6 256.7 119.2 256.4Q118.9 256.1 118.4 256.1L118.4 256.1Q117.8 256.1 117.5 256.5Q117.2 256.8 117.2 257.4L117.2 257.4L117.2 262.1L115.1 262.1L115.1 257.3Q115.1 256.8 114.8 256.4Q114.5 256.1 113.9 256.1L113.9 256.1Q113.6 256.1 113.3 256.3Q113.0 256.5 112.9 256.8Q112.7 257.1 112.7 257.5L112.7 257.5L112.7 262.1Z M133.9 255.2L131.7 255.2Q131.6 254.8 131.4 254.6Q131.2 254.3 130.9 254.1Q130.6 253.9 130.3 253.8Q130.0 253.7 129.5 253.7L129.5 253.7Q128.8 253.7 128.2 254.1Q127.6 254.4 127.2 255.2Q126.9 255.9 126.9 257.0L126.9 257.0Q126.9 258.1 127.2 258.8Q127.6 259.5 128.2 259.9Q128.8 260.3 129.6 260.3L129.6 260.3Q130.3 260.3 130.8 260.1Q131.3 259.8 131.6 259.3Q131.9 258.8 131.9 258.2L131.9 258.2L132.3 258.3L129.7 258.3L129.7 256.6L134.0 256.6L134.0 257.9Q134.0 259.3 133.4 260.2Q132.8 261.2 131.8 261.7Q130.8 262.2 129.5 262.2L129.5 262.2Q128.1 262.2 127.0 261.6Q125.9 261.0 125.3 259.8Q124.7 258.6 124.7 257.0L124.7 257.0Q124.7 255.8 125.1 254.8Q125.5 253.8 126.1 253.2Q126.8 252.5 127.6 252.1Q128.5 251.8 129.5 251.8L129.5 251.8Q130.4 251.8 131.1 252.0Q131.9 252.3 132.4 252.7Q133.0 253.2 133.4 253.8Q133.8 254.4 133.9 255.2L133.9 255.2ZM138.1 262.2L138.1 262.2Q136.9 262.2 136.1 261.8Q135.2 261.3 134.8 260.4Q134.3 259.5 134.3 258.3L134.3 258.3Q134.3 257.1 134.8 256.2Q135.2 255.3 136.1 254.9Q136.9 254.4 138.0 254.4L138.0 254.4Q138.8 254.4 139.4 254.6Q140.1 254.8 140.6 255.3Q141.1 255.8 141.3 256.5Q141.6 257.3 141.6 258.2L141.6 258.2L141.6 258.8L135.2 258.8L135.2 257.5L139.6 257.5Q139.6 257.0 139.4 256.7Q139.2 256.3 138.9 256.1Q138.5 255.9 138.1 255.9L138.1 255.9Q137.6 255.9 137.2 256.2Q136.8 256.4 136.6 256.7Q136.4 257.1 136.4 257.6L136.4 257.6L136.4 258.8Q136.4 259.4 136.6 259.8Q136.8 260.2 137.2 260.4Q137.6 260.7 138.1 260.7L138.1 260.7Q138.5 260.7 138.8 260.6Q139.1 260.5 139.3 260.3Q139.5 260.1 139.6 259.8L139.6 259.8L141.6 259.9Q141.4 260.6 141.0 261.1Q140.5 261.7 139.8 261.9Q139.1 262.2 138.1 262.2ZM144.3 262.2L144.3 262.2Q143.5 262.2 143.0 262.0Q142.4 261.7 142.1 261.2Q141.7 260.7 141.7 260.0L141.7 260.0Q141.7 259.3 142.0 258.9Q142.2 258.5 142.6 258.2Q143.0 257.9 143.5 257.8Q144.0 257.7 144.6 257.6L144.6 257.6Q145.3 257.5 145.7 257.5Q146.1 257.4 146.3 257.3Q146.5 257.2 146.5 256.9L146.5 256.9L146.5 256.9Q146.5 256.4 146.2 256.2Q145.9 255.9 145.3 255.9L145.3 255.9Q144.7 255.9 144.4 256.2Q144.1 256.4 144.0 256.8L144.0 256.8L142.0 256.6Q142.2 255.9 142.6 255.4Q143.0 254.9 143.7 254.6Q144.4 254.4 145.3 254.4L145.3 254.4Q146.0 254.4 146.6 254.5Q147.1 254.7 147.6 255.0Q148.0 255.3 148.3 255.8Q148.6 256.3 148.6 256.9L148.6 256.9L148.6 262.1L146.6 262.1L146.6 261.0L146.5 261.0Q146.3 261.4 146.0 261.7Q145.7 261.9 145.3 262.1Q144.8 262.2 144.3 262.2ZM144.9 260.8L144.9 260.8Q145.3 260.8 145.7 260.6Q146.1 260.4 146.3 260.1Q146.5 259.8 146.5 259.4L146.5 259.4L146.5 258.6Q146.4 258.6 146.2 258.7Q146.0 258.7 145.8 258.8Q145.6 258.8 145.4 258.8Q145.2 258.9 145.0 258.9L145.0 258.9Q144.6 258.9 144.3 259.1Q144.1 259.2 143.9 259.4Q143.8 259.6 143.8 259.9L143.8 259.9Q143.8 260.3 144.1 260.5Q144.4 260.8 144.9 260.8ZM151.4 262.1L149.3 262.1L149.3 254.5L151.4 254.5L151.4 255.8L151.4 255.8Q151.7 255.1 152.2 254.7Q152.6 254.3 153.3 254.3L153.3 254.3Q153.4 254.3 153.6 254.4Q153.8 254.4 154.0 254.4L154.0 254.4L154.0 256.3Q153.8 256.3 153.5 256.2Q153.3 256.2 153.1 256.2L153.1 256.2Q152.6 256.2 152.2 256.4Q151.9 256.6 151.6 256.9Q151.4 257.3 151.4 257.8L151.4 257.8L151.4 262.1ZM160.5 256.6L160.5 256.6L158.6 256.8Q158.5 256.5 158.3 256.3Q158.2 256.1 157.9 256.0Q157.6 255.9 157.3 255.9L157.3 255.9Q156.8 255.9 156.4 256.1Q156.1 256.3 156.1 256.6L156.1 256.6Q156.1 256.9 156.3 257.1Q156.5 257.3 157.1 257.4L157.1 257.4L158.5 257.7Q159.6 257.9 160.1 258.4Q160.7 258.9 160.7 259.7L160.7 259.7Q160.7 260.5 160.2 261.0Q159.8 261.6 159.0 261.9Q158.3 262.2 157.3 262.2L157.3 262.2Q155.8 262.2 154.9 261.6Q154.0 261.0 153.8 259.9L153.8 259.9L155.9 259.8Q156.0 260.2 156.3 260.5Q156.7 260.7 157.3 260.7L157.3 260.7Q157.8 260.7 158.2 260.5Q158.5 260.3 158.5 259.9L158.5 259.9Q158.5 259.6 158.3 259.5Q158.0 259.3 157.5 259.2L157.5 259.2L156.2 258.9Q155.1 258.7 154.5 258.1Q154.0 257.6 154.0 256.7L154.0 256.7Q154.0 256.0 154.4 255.5Q154.8 254.9 155.5 254.6Q156.3 254.4 157.2 254.4L157.2 254.4Q158.7 254.4 159.5 255.0Q160.4 255.6 160.5 256.6Z M167.2 262.1L165.0 262.1L162.9 254.5L165.0 254.5L166.2 259.6L166.3 259.6L167.5 254.5L169.6 254.5L170.9 259.6L170.9 259.6L172.1 254.5L174.2 254.5L172.2 262.1L169.9 262.1L168.6 257.3L168.5 257.3L167.2 262.1ZM176.6 262.1L174.5 262.1L174.5 254.5L176.6 254.5L176.6 262.1ZM175.5 253.5L175.5 253.5Q175.0 253.5 174.7 253.2Q174.4 252.8 174.4 252.4L174.4 252.4Q174.4 252.0 174.7 251.6Q175.0 251.3 175.5 251.3L175.5 251.3Q176.0 251.3 176.3 251.6Q176.7 252.0 176.7 252.4L176.7 252.4Q176.7 252.8 176.3 253.2Q176.0 253.5 175.5 253.5ZM176.8 254.5L181.4 254.5L181.4 256.0L176.8 256.0L176.8 254.5ZM177.9 260.0L177.9 252.6L180.0 252.6L180.0 259.7Q180.0 260.0 180.1 260.2Q180.2 260.4 180.3 260.4Q180.5 260.5 180.7 260.5L180.7 260.5Q180.9 260.5 181.0 260.5Q181.1 260.4 181.2 260.4L181.2 260.4L181.6 262.0Q181.4 262.0 181.1 262.1Q180.8 262.2 180.4 262.2L180.4 262.2Q179.6 262.2 179.1 262.0Q178.5 261.8 178.2 261.3Q177.9 260.8 177.9 260.0L177.9 260.0ZM184.2 257.7L184.2 257.7L184.2 262.1L182.1 262.1L182.1 251.9L184.1 251.9L184.1 255.8L184.2 255.8Q184.5 255.1 185.0 254.7Q185.6 254.4 186.5 254.4L186.5 254.4Q187.3 254.4 187.9 254.7Q188.5 255.0 188.8 255.7Q189.1 256.3 189.1 257.2L189.1 257.2L189.1 262.1L187.0 262.1L187.0 257.6Q187.0 256.9 186.7 256.5Q186.3 256.1 185.6 256.1L185.6 256.1Q185.2 256.1 184.9 256.3Q184.6 256.5 184.4 256.8Q184.2 257.2 184.2 257.7Z M193.4 265.0L193.4 265.0Q193.0 265.0 192.6 264.9Q192.3 264.8 192.1 264.7L192.1 264.7L192.5 263.2Q192.9 263.3 193.2 263.3Q193.5 263.3 193.7 263.1Q194.0 263.0 194.1 262.6L194.1 262.6L194.2 262.3L191.5 254.5L193.7 254.5L195.3 260.1L195.4 260.1L197.0 254.5L199.2 254.5L196.2 262.9Q196.0 263.5 195.7 264.0Q195.3 264.5 194.7 264.7Q194.2 265.0 193.4 265.0ZM202.6 262.2L202.6 262.2Q201.4 262.2 200.6 261.7Q199.7 261.3 199.3 260.4Q198.8 259.5 198.8 258.3L198.8 258.3Q198.8 257.1 199.3 256.2Q199.7 255.3 200.6 254.8Q201.4 254.4 202.6 254.4L202.6 254.4Q203.7 254.4 204.6 254.8Q205.4 255.3 205.9 256.2Q206.3 257.1 206.3 258.3L206.3 258.3Q206.3 259.5 205.9 260.4Q205.4 261.3 204.6 261.7Q203.7 262.2 202.6 262.2ZM202.6 260.6L202.6 260.6Q203.1 260.6 203.5 260.3Q203.8 260.0 204.0 259.5Q204.2 259.0 204.2 258.3L204.2 258.3Q204.2 257.6 204.0 257.1Q203.8 256.6 203.5 256.3Q203.1 256.0 202.6 256.0L202.6 256.0Q202.1 256.0 201.7 256.3Q201.3 256.6 201.2 257.1Q201.0 257.6 201.0 258.3L201.0 258.3Q201.0 259.0 201.2 259.5Q201.3 260.0 201.7 260.3Q202.1 260.6 202.6 260.6ZM211.7 258.8L211.7 258.8L211.7 254.5L213.8 254.5L213.8 262.1L211.8 262.1L211.8 260.7L211.7 260.7Q211.5 261.4 210.9 261.8Q210.3 262.2 209.4 262.2L209.4 262.2Q208.6 262.2 208.1 261.8Q207.5 261.5 207.2 260.9Q206.8 260.2 206.8 259.3L206.8 259.3L206.8 254.5L208.9 254.5L208.9 258.9Q208.9 259.6 209.3 260.0Q209.7 260.4 210.3 260.4L210.3 260.4Q210.7 260.4 211.0 260.2Q211.3 260.0 211.5 259.7Q211.7 259.4 211.7 258.8ZM216.8 262.1L214.6 262.1L214.6 254.5L216.7 254.5L216.7 255.8L216.8 255.8Q217.0 255.1 217.5 254.7Q218.0 254.3 218.6 254.3L218.6 254.3Q218.8 254.3 218.9 254.4Q219.1 254.4 219.3 254.4L219.3 254.4L219.3 256.3Q219.1 256.3 218.9 256.2Q218.6 256.2 218.4 256.2L218.4 256.2Q217.9 256.2 217.5 256.4Q217.2 256.6 217.0 256.9Q216.8 257.3 216.8 257.8L216.8 257.8L216.8 262.1Z M224.2 265.0L222.1 265.0L222.1 254.5L224.1 254.5L224.1 255.7L224.2 255.7Q224.4 255.4 224.6 255.1Q224.9 254.8 225.3 254.6Q225.8 254.4 226.4 254.4L226.4 254.4Q227.2 254.4 228.0 254.8Q228.7 255.2 229.1 256.1Q229.5 257.0 229.5 258.3L229.5 258.3Q229.5 259.6 229.1 260.4Q228.7 261.3 228.0 261.8Q227.3 262.2 226.4 262.2L226.4 262.2Q225.8 262.2 225.4 262.0Q224.9 261.8 224.7 261.5Q224.4 261.2 224.2 260.9L224.2 260.9L224.2 260.9L224.2 265.0ZM224.1 258.3L224.1 258.3Q224.1 259.0 224.3 259.5Q224.5 260.0 224.9 260.2Q225.2 260.5 225.7 260.5L225.7 260.5Q226.3 260.5 226.6 260.2Q227.0 260.0 227.2 259.4Q227.3 258.9 227.3 258.3L227.3 258.3Q227.3 257.6 227.2 257.1Q227.0 256.6 226.6 256.3Q226.3 256.0 225.7 256.0L225.7 256.0Q225.2 256.0 224.9 256.3Q224.5 256.6 224.3 257.1Q224.1 257.6 224.1 258.3ZM232.1 257.7L232.1 257.7L232.1 262.1L230.0 262.1L230.0 251.9L232.1 251.9L232.1 255.8L232.2 255.8Q232.4 255.1 233.0 254.7Q233.6 254.4 234.4 254.4L234.4 254.4Q235.2 254.4 235.8 254.7Q236.4 255.0 236.8 255.7Q237.1 256.3 237.1 257.2L237.1 257.2L237.1 262.1L235.0 262.1L235.0 257.6Q235.0 256.9 234.6 256.5Q234.2 256.1 233.6 256.1L233.6 256.1Q233.2 256.1 232.8 256.3Q232.5 256.5 232.3 256.8Q232.1 257.2 232.1 257.7ZM241.3 262.2L241.3 262.2Q240.1 262.2 239.3 261.7Q238.5 261.3 238.0 260.4Q237.5 259.5 237.5 258.3L237.5 258.3Q237.5 257.1 238.0 256.2Q238.5 255.3 239.3 254.8Q240.1 254.4 241.3 254.4L241.3 254.4Q242.5 254.4 243.3 254.8Q244.1 255.3 244.6 256.2Q245.1 257.1 245.1 258.3L245.1 258.3Q245.1 259.5 244.6 260.4Q244.1 261.3 243.3 261.7Q242.5 262.2 241.3 262.2ZM241.3 260.6L241.3 260.6Q241.8 260.6 242.2 260.3Q242.5 260.0 242.7 259.5Q242.9 259.0 242.9 258.3L242.9 258.3Q242.9 257.6 242.7 257.1Q242.5 256.6 242.2 256.3Q241.8 256.0 241.3 256.0L241.3 256.0Q240.8 256.0 240.4 256.3Q240.1 256.6 239.9 257.1Q239.7 257.6 239.7 258.3L239.7 258.3Q239.7 259.0 239.9 259.5Q240.1 260.0 240.4 260.3Q240.8 260.6 241.3 260.6ZM245.0 254.5L249.6 254.5L249.6 256.0L245.0 256.0L245.0 254.5ZM246.0 260.0L246.0 252.6L248.2 252.6L248.2 259.7Q248.2 260.0 248.3 260.2Q248.3 260.4 248.5 260.4Q248.7 260.5 248.9 260.5L248.9 260.5Q249.0 260.5 249.2 260.5Q249.3 260.4 249.4 260.4L249.4 260.4L249.7 262.0Q249.6 262.0 249.3 262.1Q249.0 262.2 248.6 262.2L248.6 262.2Q247.8 262.2 247.3 262.0Q246.7 261.8 246.4 261.3Q246.0 260.8 246.0 260.0L246.0 260.0ZM253.4 262.2L253.4 262.2Q252.3 262.2 251.4 261.7Q250.6 261.3 250.1 260.4Q249.7 259.5 249.7 258.3L249.7 258.3Q249.7 257.1 250.1 256.2Q250.6 255.3 251.4 254.8Q252.3 254.4 253.4 254.4L253.4 254.4Q254.6 254.4 255.5 254.8Q256.3 255.3 256.8 256.2Q257.2 257.1 257.2 258.3L257.2 258.3Q257.2 259.5 256.8 260.4Q256.3 261.3 255.5 261.7Q254.6 262.2 253.4 262.2ZM253.5 260.6L253.5 260.6Q254.0 260.6 254.3 260.3Q254.7 260.0 254.9 259.5Q255.1 259.0 255.1 258.3L255.1 258.3Q255.1 257.6 254.9 257.1Q254.7 256.6 254.3 256.3Q254.0 256.0 253.5 256.0L253.5 256.0Q252.9 256.0 252.6 256.3Q252.2 256.6 252.0 257.1Q251.8 257.6 251.8 258.3L251.8 258.3Q251.8 259.0 252.0 259.5Q252.2 260.0 252.6 260.3Q252.9 260.6 253.5 260.6ZM264.0 256.6L264.0 256.6L262.1 256.8Q262.1 256.5 261.9 256.3Q261.7 256.1 261.5 256.0Q261.2 255.9 260.8 255.9L260.8 255.9Q260.3 255.9 260.0 256.1Q259.7 256.3 259.7 256.6L259.7 256.6Q259.7 256.9 259.9 257.1Q260.1 257.3 260.6 257.4L260.6 257.4L262.0 257.7Q263.1 257.9 263.7 258.4Q264.2 258.9 264.2 259.7L264.2 259.7Q264.2 260.5 263.8 261.0Q263.3 261.6 262.6 261.9Q261.8 262.2 260.8 262.2L260.8 262.2Q259.3 262.2 258.4 261.6Q257.5 261.0 257.4 259.9L257.4 259.9L259.4 259.8Q259.5 260.2 259.9 260.5Q260.3 260.7 260.8 260.7L260.8 260.7Q261.4 260.7 261.7 260.5Q262.1 260.3 262.1 259.9L262.1 259.9Q262.1 259.6 261.8 259.5Q261.6 259.3 261.1 259.2L261.1 259.2L259.8 258.9Q258.6 258.7 258.1 258.1Q257.6 257.6 257.6 256.7L257.6 256.7Q257.6 256.0 258.0 255.5Q258.4 254.9 259.1 254.6Q259.8 254.4 260.8 254.4L260.8 254.4Q262.2 254.4 263.1 255.0Q263.9 255.6 264.0 256.6Z M270.5 262.2L270.5 262.2Q269.4 262.2 268.5 261.7Q267.7 261.3 267.2 260.4Q266.8 259.5 266.8 258.3L266.8 258.3Q266.8 257.1 267.2 256.2Q267.7 255.3 268.5 254.8Q269.4 254.4 270.5 254.4L270.5 254.4Q271.7 254.4 272.5 254.8Q273.4 255.3 273.8 256.2Q274.3 257.1 274.3 258.3L274.3 258.3Q274.3 259.5 273.8 260.4Q273.4 261.3 272.5 261.7Q271.7 262.2 270.5 262.2ZM270.5 260.6L270.5 260.6Q271.1 260.6 271.4 260.3Q271.8 260.0 272.0 259.5Q272.1 259.0 272.1 258.3L272.1 258.3Q272.1 257.6 272.0 257.1Q271.8 256.6 271.4 256.3Q271.1 256.0 270.5 256.0L270.5 256.0Q270.0 256.0 269.6 256.3Q269.3 256.6 269.1 257.1Q268.9 257.6 268.9 258.3L268.9 258.3Q268.9 259.0 269.1 259.5Q269.3 260.0 269.6 260.3Q270.0 260.6 270.5 260.6ZM276.9 262.1L274.8 262.1L274.8 254.5L276.8 254.5L276.8 255.8L276.9 255.8Q277.1 255.1 277.6 254.7Q278.1 254.3 278.7 254.3L278.7 254.3Q278.9 254.3 279.1 254.4Q279.3 254.4 279.4 254.4L279.4 254.4L279.4 256.3Q279.3 256.3 279.0 256.2Q278.7 256.2 278.5 256.2L278.5 256.2Q278.0 256.2 277.7 256.4Q277.3 256.6 277.1 256.9Q276.9 257.3 276.9 257.8L276.9 257.8L276.9 262.1Z M281.9 251.9L284.1 251.9L284.1 262.1L281.9 262.1L281.9 251.9ZM288.3 262.2L288.3 262.2Q287.2 262.2 286.3 261.8Q285.5 261.3 285.0 260.4Q284.5 259.5 284.5 258.3L284.5 258.3Q284.5 257.1 285.0 256.2Q285.5 255.3 286.3 254.9Q287.1 254.4 288.2 254.4L288.2 254.4Q289.0 254.4 289.7 254.6Q290.3 254.8 290.8 255.3Q291.3 255.8 291.6 256.5Q291.8 257.3 291.8 258.2L291.8 258.2L291.8 258.8L285.4 258.8L285.4 257.5L289.8 257.5Q289.8 257.0 289.6 256.7Q289.4 256.3 289.1 256.1Q288.7 255.9 288.3 255.9L288.3 255.9Q287.8 255.9 287.4 256.2Q287.1 256.4 286.8 256.7Q286.6 257.1 286.6 257.6L286.6 257.6L286.6 258.8Q286.6 259.4 286.8 259.8Q287.1 260.2 287.4 260.4Q287.8 260.7 288.4 260.7L288.4 260.7Q288.7 260.7 289.0 260.6Q289.3 260.5 289.5 260.3Q289.7 260.1 289.8 259.8L289.8 259.8L291.8 259.9Q291.6 260.6 291.2 261.1Q290.7 261.7 290.0 261.9Q289.3 262.2 288.3 262.2ZM291.8 254.5L296.4 254.5L296.4 256.0L291.8 256.0L291.8 254.5ZM292.8 260.0L292.8 252.6L294.9 252.6L294.9 259.7Q294.9 260.0 295.0 260.2Q295.1 260.4 295.3 260.4Q295.4 260.5 295.7 260.5L295.7 260.5Q295.8 260.5 296.0 260.5Q296.1 260.4 296.2 260.4L296.2 260.4L296.5 262.0Q296.4 262.0 296.1 262.1Q295.8 262.2 295.4 262.2L295.4 262.2Q294.6 262.2 294.0 262.0Q293.5 261.8 293.1 261.3Q292.8 260.8 292.8 260.0L292.8 260.0Z M302.7 262.2L302.7 262.2Q301.5 262.2 300.7 261.7Q299.8 261.3 299.4 260.4Q298.9 259.5 298.9 258.3L298.9 258.3Q298.9 257.1 299.4 256.2Q299.8 255.3 300.7 254.8Q301.5 254.4 302.7 254.4L302.7 254.4Q303.8 254.4 304.7 254.8Q305.5 255.3 306.0 256.2Q306.4 257.1 306.4 258.3L306.4 258.3Q306.4 259.5 306.0 260.4Q305.5 261.3 304.7 261.7Q303.8 262.2 302.7 262.2ZM302.7 260.6L302.7 260.6Q303.2 260.6 303.5 260.3Q303.9 260.0 304.1 259.5Q304.3 259.0 304.3 258.3L304.3 258.3Q304.3 257.6 304.1 257.1Q303.9 256.6 303.5 256.3Q303.2 256.0 302.7 256.0L302.7 256.0Q302.1 256.0 301.8 256.3Q301.4 256.6 301.2 257.1Q301.0 257.6 301.0 258.3L301.0 258.3Q301.0 259.0 301.2 259.5Q301.4 260.0 301.8 260.3Q302.1 260.6 302.7 260.6ZM311.8 258.8L311.8 258.8L311.8 254.5L313.9 254.5L313.9 262.1L311.9 262.1L311.9 260.7L311.8 260.7Q311.5 261.4 310.9 261.8Q310.3 262.2 309.5 262.2L309.5 262.2Q308.7 262.2 308.1 261.8Q307.5 261.5 307.2 260.9Q306.9 260.2 306.9 259.3L306.9 259.3L306.9 254.5L309.0 254.5L309.0 258.9Q309.0 259.6 309.4 260.0Q309.7 260.4 310.3 260.4L310.3 260.4Q310.7 260.4 311.0 260.2Q311.4 260.0 311.6 259.7Q311.8 259.4 311.8 258.8ZM316.8 262.1L314.7 262.1L314.7 254.5L316.8 254.5L316.8 255.8L316.8 255.8Q317.0 255.1 317.5 254.7Q318.0 254.3 318.7 254.3L318.7 254.3Q318.8 254.3 319.0 254.4Q319.2 254.4 319.3 254.4L319.3 254.4L319.3 256.3Q319.2 256.3 318.9 256.2Q318.7 256.2 318.4 256.2L318.4 256.2Q318.0 256.2 317.6 256.4Q317.2 256.6 317.0 256.9Q316.8 257.3 316.8 257.8L316.8 257.8L316.8 262.1Z M326.2 254.2L323.7 262.1L321.4 262.1L324.9 251.9L327.6 251.9L331.2 262.1L328.8 262.1L326.3 254.2L326.2 254.2ZM323.5 259.8L323.5 258.1L329.0 258.1L329.0 259.8L323.5 259.8ZM331.5 251.9L333.6 251.9L333.6 262.1L331.5 262.1L331.5 251.9Z M339.6 262.2L339.6 262.2Q338.8 262.2 338.1 261.8Q337.3 261.3 336.9 260.4Q336.5 259.6 336.5 258.3L336.5 258.3Q336.5 257.0 337.0 256.1Q337.4 255.2 338.1 254.8Q338.8 254.4 339.6 254.4L339.6 254.4Q340.3 254.4 340.7 254.6Q341.1 254.8 341.4 255.1Q341.7 255.4 341.8 255.7L341.8 255.7L341.9 255.7L341.9 251.9L344.0 251.9L344.0 262.1L341.9 262.1L341.9 260.9L341.8 260.9Q341.6 261.2 341.4 261.5Q341.1 261.8 340.7 262.0Q340.2 262.2 339.6 262.2ZM340.3 260.5L340.3 260.5Q340.8 260.5 341.2 260.2Q341.5 260.0 341.7 259.5Q341.9 259.0 341.9 258.3L341.9 258.3Q341.9 257.6 341.7 257.1Q341.5 256.6 341.2 256.3Q340.8 256.0 340.3 256.0L340.3 256.0Q339.8 256.0 339.4 256.3Q339.1 256.6 338.9 257.1Q338.7 257.6 338.7 258.3L338.7 258.3Q338.7 258.9 338.9 259.4Q339.1 260.0 339.4 260.2Q339.8 260.5 340.3 260.5ZM348.3 262.2L348.3 262.2Q347.1 262.2 346.3 261.8Q345.4 261.3 345.0 260.4Q344.5 259.5 344.5 258.3L344.5 258.3Q344.5 257.1 345.0 256.2Q345.4 255.3 346.2 254.9Q347.1 254.4 348.2 254.4L348.2 254.4Q349.0 254.4 349.6 254.6Q350.3 254.8 350.8 255.3Q351.2 255.8 351.5 256.5Q351.8 257.3 351.8 258.2L351.8 258.2L351.8 258.8L345.3 258.8L345.3 257.5L349.8 257.5Q349.8 257.0 349.6 256.7Q349.4 256.3 349.0 256.1Q348.7 255.9 348.2 255.9L348.2 255.9Q347.8 255.9 347.4 256.2Q347.0 256.4 346.8 256.7Q346.6 257.1 346.6 257.6L346.6 257.6L346.6 258.8Q346.6 259.4 346.8 259.8Q347.0 260.2 347.4 260.4Q347.8 260.7 348.3 260.7L348.3 260.7Q348.7 260.7 349.0 260.6Q349.3 260.5 349.5 260.3Q349.7 260.1 349.8 259.8L349.8 259.8L351.7 259.9Q351.6 260.6 351.1 261.1Q350.7 261.7 350.0 261.9Q349.2 262.2 348.3 262.2ZM358.6 256.6L358.6 256.6L356.7 256.8Q356.6 256.5 356.5 256.3Q356.3 256.1 356.0 256.0Q355.8 255.9 355.4 255.9L355.4 255.9Q354.9 255.9 354.6 256.1Q354.2 256.3 354.2 256.6L354.2 256.6Q354.2 256.9 354.5 257.1Q354.7 257.3 355.2 257.4L355.2 257.4L356.6 257.7Q357.7 257.9 358.3 258.4Q358.8 258.9 358.8 259.7L358.8 259.7Q358.8 260.5 358.4 261.0Q357.9 261.6 357.2 261.9Q356.4 262.2 355.4 262.2L355.4 262.2Q353.9 262.2 353.0 261.6Q352.1 261.0 351.9 259.9L351.9 259.9L354.0 259.8Q354.1 260.2 354.5 260.5Q354.8 260.7 355.4 260.7L355.4 260.7Q356.0 260.7 356.3 260.5Q356.6 260.3 356.6 259.9L356.6 259.9Q356.6 259.6 356.4 259.5Q356.2 259.3 355.7 259.2L355.7 259.2L354.3 258.9Q353.2 258.7 352.7 258.1Q352.1 257.6 352.1 256.7L352.1 256.7Q352.1 256.0 352.5 255.5Q352.9 254.9 353.7 254.6Q354.4 254.4 355.4 254.4L355.4 254.4Q356.8 254.4 357.7 255.0Q358.5 255.6 358.6 256.6ZM361.4 262.1L359.2 262.1L359.2 254.5L361.4 254.5L361.4 262.1ZM360.3 253.5L360.3 253.5Q359.8 253.5 359.5 253.2Q359.2 252.8 359.2 252.4L359.2 252.4Q359.2 252.0 359.5 251.6Q359.8 251.3 360.3 251.3L360.3 251.3Q360.8 251.3 361.1 251.6Q361.4 252.0 361.4 252.4L361.4 252.4Q361.4 252.8 361.1 253.2Q360.8 253.5 360.3 253.5ZM365.6 265.1L365.6 265.1Q364.6 265.1 363.8 264.8Q363.1 264.6 362.7 264.1Q362.2 263.6 362.1 263.0L362.1 263.0L364.1 262.7Q364.1 263.0 364.3 263.1Q364.5 263.3 364.9 263.5Q365.2 263.6 365.6 263.6L365.6 263.6Q366.3 263.6 366.8 263.3Q367.2 262.9 367.2 262.1L367.2 262.1L367.2 260.7L367.1 260.7Q367.0 261.1 366.7 261.3Q366.4 261.6 366.0 261.8Q365.6 262.0 365.0 262.0L365.0 262.0Q364.1 262.0 363.4 261.6Q362.7 261.2 362.3 260.4Q361.9 259.5 361.9 258.3L361.9 258.3Q361.9 257.0 362.3 256.1Q362.7 255.2 363.4 254.8Q364.1 254.4 365.0 254.4L365.0 254.4Q365.6 254.4 366.0 254.6Q366.5 254.8 366.7 255.1Q367.0 255.4 367.1 255.7L367.1 255.7L367.2 255.7L367.2 254.5L369.3 254.5L369.3 262.2Q369.3 263.1 368.8 263.8Q368.4 264.5 367.5 264.8Q366.7 265.1 365.6 265.1ZM365.6 260.4L365.6 260.4Q366.1 260.4 366.5 260.1Q366.9 259.9 367.0 259.4Q367.2 258.9 367.2 258.2L367.2 258.2Q367.2 257.6 367.0 257.1Q366.9 256.6 366.5 256.3Q366.1 256.0 365.6 256.0L365.6 256.0Q365.1 256.0 364.8 256.3Q364.4 256.6 364.2 257.1Q364.0 257.6 364.0 258.2L364.0 258.2Q364.0 258.9 364.2 259.4Q364.4 259.9 364.8 260.1Q365.1 260.4 365.6 260.4ZM372.2 257.7L372.2 257.7L372.2 262.1L370.1 262.1L370.1 254.5L372.1 254.5L372.1 255.8L372.2 255.8Q372.5 255.1 373.1 254.7Q373.7 254.4 374.5 254.4L374.5 254.4Q375.3 254.4 375.9 254.7Q376.5 255.1 376.8 255.7Q377.1 256.3 377.1 257.2L377.1 257.2L377.1 262.1L375.0 262.1L375.0 257.6Q375.0 256.9 374.7 256.5Q374.3 256.1 373.7 256.1L373.7 256.1Q373.2 256.1 372.9 256.3Q372.6 256.5 372.4 256.8Q372.2 257.2 372.2 257.7Z M386.6 256.6L386.6 256.6L384.7 256.8Q384.6 256.5 384.5 256.3Q384.3 256.1 384.0 256.0Q383.8 255.9 383.4 255.9L383.4 255.9Q382.9 255.9 382.6 256.1Q382.2 256.3 382.2 256.6L382.2 256.6Q382.2 256.9 382.4 257.1Q382.7 257.3 383.2 257.4L383.2 257.4L384.6 257.7Q385.7 257.9 386.2 258.4Q386.8 258.9 386.8 259.7L386.8 259.7Q386.8 260.5 386.3 261.0Q385.9 261.6 385.1 261.9Q384.4 262.2 383.4 262.2L383.4 262.2Q381.9 262.2 381.0 261.6Q380.1 261.0 379.9 259.9L379.9 259.9L382.0 259.8Q382.1 260.2 382.5 260.5Q382.8 260.7 383.4 260.7L383.4 260.7Q384.0 260.7 384.3 260.5Q384.6 260.3 384.6 259.9L384.6 259.9Q384.6 259.6 384.4 259.5Q384.2 259.3 383.7 259.2L383.7 259.2L382.3 258.9Q381.2 258.7 380.7 258.1Q380.1 257.6 380.1 256.7L380.1 256.7Q380.1 256.0 380.5 255.5Q380.9 254.9 381.7 254.6Q382.4 254.4 383.4 254.4L383.4 254.4Q384.8 254.4 385.6 255.0Q386.5 255.6 386.6 256.6ZM390.7 262.2L390.7 262.2Q389.5 262.2 388.7 261.7Q387.8 261.3 387.4 260.4Q386.9 259.5 386.9 258.3L386.9 258.3Q386.9 257.1 387.4 256.2Q387.8 255.3 388.7 254.8Q389.5 254.4 390.7 254.4L390.7 254.4Q391.8 254.4 392.7 254.8Q393.5 255.3 394.0 256.2Q394.4 257.1 394.4 258.3L394.4 258.3Q394.4 259.5 394.0 260.4Q393.5 261.3 392.7 261.7Q391.8 262.2 390.7 262.2ZM390.7 260.6L390.7 260.6Q391.2 260.6 391.6 260.3Q391.9 260.0 392.1 259.5Q392.3 259.0 392.3 258.3L392.3 258.3Q392.3 257.6 392.1 257.1Q391.9 256.6 391.6 256.3Q391.2 256.0 390.7 256.0L390.7 256.0Q390.2 256.0 389.8 256.3Q389.4 256.6 389.3 257.1Q389.1 257.6 389.1 258.3L389.1 258.3Q389.1 259.0 389.3 259.5Q389.4 260.0 389.8 260.3Q390.2 260.6 390.7 260.6ZM397.0 262.1L394.9 262.1L394.9 254.5L396.9 254.5L396.9 255.8L397.0 255.8Q397.3 255.1 397.8 254.7Q398.4 254.4 399.2 254.4L399.2 254.4Q399.9 254.4 400.5 254.7Q401.0 255.1 401.2 255.8L401.2 255.8L401.3 255.8Q401.5 255.1 402.2 254.8Q402.8 254.4 403.6 254.4L403.6 254.4Q404.7 254.4 405.3 255.0Q406.0 255.7 406.0 257.0L406.0 257.0L406.0 262.1L403.9 262.1L403.9 257.4Q403.9 256.7 403.6 256.4Q403.2 256.1 402.7 256.1L402.7 256.1Q402.1 256.1 401.8 256.5Q401.5 256.8 401.5 257.4L401.5 257.4L401.5 262.1L399.4 262.1L399.4 257.3Q399.4 256.8 399.1 256.4Q398.8 256.1 398.3 256.1L398.3 256.1Q397.9 256.1 397.6 256.3Q397.4 256.5 397.2 256.8Q397.0 257.1 397.0 257.5L397.0 257.5L397.0 262.1ZM410.3 262.2L410.3 262.2Q409.1 262.2 408.2 261.8Q407.4 261.3 406.9 260.4Q406.5 259.5 406.5 258.3L406.5 258.3Q406.5 257.1 406.9 256.2Q407.4 255.3 408.2 254.9Q409.1 254.4 410.2 254.4L410.2 254.4Q410.9 254.4 411.6 254.6Q412.2 254.8 412.7 255.3Q413.2 255.8 413.5 256.5Q413.8 257.3 413.8 258.2L413.8 258.2L413.8 258.8L407.3 258.8L407.3 257.5L411.8 257.5Q411.8 257.0 411.6 256.7Q411.4 256.3 411.0 256.1Q410.7 255.9 410.2 255.9L410.2 255.9Q409.7 255.9 409.4 256.2Q409.0 256.4 408.8 256.7Q408.6 257.1 408.6 257.6L408.6 257.6L408.6 258.8Q408.6 259.4 408.8 259.8Q409.0 260.2 409.4 260.4Q409.8 260.7 410.3 260.7L410.3 260.7Q410.7 260.7 410.9 260.6Q411.2 260.5 411.4 260.3Q411.7 260.1 411.8 259.8L411.8 259.8L413.7 259.9Q413.6 260.6 413.1 261.1Q412.7 261.7 411.9 261.9Q411.2 262.2 410.3 262.2ZM413.7 254.5L418.3 254.5L418.3 256.0L413.7 256.0L413.7 254.5ZM414.8 260.0L414.8 252.6L416.9 252.6L416.9 259.7Q416.9 260.0 417.0 260.2Q417.1 260.4 417.2 260.4Q417.4 260.5 417.6 260.5L417.6 260.5Q417.7 260.5 417.9 260.5Q418.0 260.4 418.1 260.4L418.1 260.4L418.5 262.0Q418.3 262.0 418.0 262.1Q417.7 262.2 417.3 262.2L417.3 262.2Q416.5 262.2 416.0 262.0Q415.4 261.8 415.1 261.3Q414.8 260.8 414.8 260.0L414.8 260.0ZM421.1 257.7L421.1 257.7L421.1 262.1L418.9 262.1L418.9 251.9L421.0 251.9L421.0 255.8L421.1 255.8Q421.4 255.1 421.9 254.7Q422.5 254.4 423.4 254.4L423.4 254.4Q424.2 254.4 424.8 254.7Q425.4 255.0 425.7 255.7Q426.0 256.3 426.0 257.2L426.0 257.2L426.0 262.1L423.9 262.1L423.9 257.6Q423.9 256.9 423.5 256.5Q423.2 256.1 422.5 256.1L422.5 256.1Q422.1 256.1 421.8 256.3Q421.4 256.5 421.3 256.8Q421.1 257.2 421.1 257.7ZM428.9 262.1L426.8 262.1L426.8 254.5L428.9 254.5L428.9 262.1ZM427.9 253.5L427.9 253.5Q427.4 253.5 427.0 253.2Q426.7 252.8 426.7 252.4L426.7 252.4Q426.7 252.0 427.0 251.6Q427.4 251.3 427.9 251.3L427.9 251.3Q428.3 251.3 428.7 251.6Q429.0 252.0 429.0 252.4L429.0 252.4Q429.0 252.8 428.7 253.2Q428.3 253.5 427.9 253.5ZM431.8 257.7L431.8 257.7L431.8 262.1L429.7 262.1L429.7 254.5L431.7 254.5L431.7 255.8L431.8 255.8Q432.1 255.1 432.7 254.7Q433.3 254.4 434.1 254.4L434.1 254.4Q434.9 254.4 435.5 254.7Q436.1 255.1 436.4 255.7Q436.7 256.3 436.7 257.2L436.7 257.2L436.7 262.1L434.6 262.1L434.6 257.6Q434.6 256.9 434.3 256.5Q433.9 256.1 433.3 256.1L433.3 256.1Q432.8 256.1 432.5 256.3Q432.2 256.5 432.0 256.8Q431.8 257.2 431.8 257.7ZM440.9 265.1L440.9 265.1Q439.9 265.1 439.2 264.8Q438.4 264.6 438.0 264.1Q437.6 263.6 437.5 263.0L437.5 263.0L439.4 262.7Q439.5 263.0 439.7 263.1Q439.9 263.3 440.2 263.5Q440.5 263.6 441.0 263.6L441.0 263.6Q441.7 263.6 442.1 263.3Q442.6 262.9 442.6 262.1L442.6 262.1L442.6 260.7L442.5 260.7Q442.4 261.1 442.1 261.3Q441.8 261.6 441.4 261.8Q440.9 262.0 440.3 262.0L440.3 262.0Q439.5 262.0 438.8 261.6Q438.1 261.2 437.6 260.4Q437.2 259.5 437.2 258.3L437.2 258.3Q437.2 257.0 437.6 256.1Q438.1 255.2 438.8 254.8Q439.5 254.4 440.3 254.4L440.3 254.4Q441.0 254.4 441.4 254.6Q441.8 254.8 442.1 255.1Q442.4 255.4 442.5 255.7L442.5 255.7L442.6 255.7L442.6 254.5L444.7 254.5L444.7 262.2Q444.7 263.1 444.2 263.8Q443.7 264.5 442.9 264.8Q442.0 265.1 440.9 265.1ZM441.0 260.4L441.0 260.4Q441.5 260.4 441.9 260.1Q442.2 259.9 442.4 259.4Q442.6 258.9 442.6 258.2L442.6 258.2Q442.6 257.6 442.4 257.1Q442.2 256.6 441.9 256.3Q441.5 256.0 441.0 256.0L441.0 256.0Q440.5 256.0 440.1 256.3Q439.8 256.6 439.6 257.1Q439.4 257.6 439.4 258.2L439.4 258.2Q439.4 258.9 439.6 259.4Q439.8 259.9 440.1 260.1Q440.5 260.4 441.0 260.4Z M449.8 262.2L449.8 262.2Q449.1 262.2 448.5 262.0Q448.0 261.7 447.6 261.2Q447.3 260.7 447.3 260.0L447.3 260.0Q447.3 259.3 447.5 258.9Q447.8 258.5 448.2 258.2Q448.6 257.9 449.1 257.8Q449.6 257.7 450.2 257.6L450.2 257.6Q450.8 257.5 451.2 257.5Q451.6 257.4 451.8 257.3Q452.0 257.2 452.0 256.9L452.0 256.9L452.0 256.9Q452.0 256.4 451.7 256.2Q451.4 255.9 450.9 255.9L450.9 255.9Q450.3 255.9 450.0 256.2Q449.6 256.4 449.5 256.8L449.5 256.8L447.6 256.6Q447.7 255.9 448.2 255.4Q448.6 254.9 449.3 254.6Q450.0 254.4 450.9 254.4L450.9 254.4Q451.5 254.4 452.1 254.5Q452.7 254.7 453.2 255.0Q453.6 255.3 453.9 255.8Q454.1 256.3 454.1 256.9L454.1 256.9L454.1 262.1L452.1 262.1L452.1 261.0L452.1 261.0Q451.9 261.4 451.6 261.7Q451.3 261.9 450.8 262.1Q450.4 262.2 449.8 262.2ZM450.4 260.8L450.4 260.8Q450.9 260.8 451.3 260.6Q451.6 260.4 451.8 260.1Q452.0 259.8 452.0 259.4L452.0 259.4L452.0 258.6Q451.9 258.6 451.8 258.7Q451.6 258.7 451.4 258.8Q451.2 258.8 450.9 258.8Q450.7 258.9 450.6 258.9L450.6 258.9Q450.2 258.9 449.9 259.1Q449.6 259.2 449.5 259.4Q449.3 259.6 449.3 259.9L449.3 259.9Q449.3 260.3 449.6 260.5Q450.0 260.8 450.4 260.8ZM457.0 262.1L454.9 262.1L454.9 254.5L456.9 254.5L456.9 255.8L457.0 255.8Q457.2 255.1 457.8 254.7Q458.3 254.4 459.1 254.4L459.1 254.4Q459.9 254.4 460.5 254.7Q461.0 255.1 461.2 255.8L461.2 255.8L461.3 255.8Q461.5 255.1 462.1 254.8Q462.7 254.4 463.6 254.4L463.6 254.4Q464.6 254.4 465.3 255.0Q466.0 255.7 466.0 257.0L466.0 257.0L466.0 262.1L463.9 262.1L463.9 257.4Q463.9 256.7 463.5 256.4Q463.2 256.1 462.7 256.1L462.7 256.1Q462.1 256.1 461.8 256.5Q461.5 256.8 461.5 257.4L461.5 257.4L461.5 262.1L459.4 262.1L459.4 257.3Q459.4 256.8 459.1 256.4Q458.8 256.1 458.2 256.1L458.2 256.1Q457.9 256.1 457.6 256.3Q457.3 256.5 457.2 256.8Q457.0 257.1 457.0 257.5L457.0 257.5L457.0 262.1ZM468.9 262.2L468.9 262.2Q468.2 262.2 467.6 262.0Q467.0 261.7 466.7 261.2Q466.4 260.7 466.4 260.0L466.4 260.0Q466.4 259.3 466.6 258.9Q466.9 258.5 467.3 258.2Q467.7 257.9 468.2 257.8Q468.7 257.7 469.3 257.6L469.3 257.6Q469.9 257.5 470.3 257.5Q470.7 257.4 470.9 257.3Q471.1 257.2 471.1 256.9L471.1 256.9L471.1 256.9Q471.1 256.4 470.8 256.2Q470.5 255.9 470.0 255.9L470.0 255.9Q469.4 255.9 469.1 256.2Q468.7 256.4 468.6 256.8L468.6 256.8L466.7 256.6Q466.8 255.9 467.2 255.4Q467.7 254.9 468.4 254.6Q469.1 254.4 470.0 254.4L470.0 254.4Q470.6 254.4 471.2 254.5Q471.8 254.7 472.2 255.0Q472.7 255.3 473.0 255.8Q473.2 256.3 473.2 256.9L473.2 256.9L473.2 262.1L471.2 262.1L471.2 261.0L471.2 261.0Q471.0 261.4 470.7 261.7Q470.4 261.9 469.9 262.1Q469.5 262.2 468.9 262.2ZM469.5 260.8L469.5 260.8Q470.0 260.8 470.4 260.6Q470.7 260.4 470.9 260.1Q471.1 259.8 471.1 259.4L471.1 259.4L471.1 258.6Q471.0 258.6 470.8 258.7Q470.7 258.7 470.5 258.8Q470.3 258.8 470.0 258.8Q469.8 258.9 469.6 258.9L469.6 258.9Q469.3 258.9 469.0 259.1Q468.7 259.2 468.6 259.4Q468.4 259.6 468.4 259.9L468.4 259.9Q468.4 260.3 468.7 260.5Q469.0 260.8 469.5 260.8ZM480.3 262.1L473.9 262.1L473.9 260.8L477.7 256.2L477.7 256.1L474.1 256.1L474.1 254.5L480.2 254.5L480.2 255.8L476.7 260.3L476.7 260.4L480.3 260.4L480.3 262.1ZM483.2 262.1L481.1 262.1L481.1 254.5L483.2 254.5L483.2 262.1ZM482.1 253.5L482.1 253.5Q481.7 253.5 481.3 253.2Q481.0 252.8 481.0 252.4L481.0 252.4Q481.0 252.0 481.3 251.6Q481.7 251.3 482.1 251.3L482.1 251.3Q482.6 251.3 482.9 251.6Q483.3 252.0 483.3 252.4L483.3 252.4Q483.3 252.8 482.9 253.2Q482.6 253.5 482.1 253.5ZM486.1 257.7L486.1 257.7L486.1 262.1L484.0 262.1L484.0 254.5L486.0 254.5L486.0 255.8L486.1 255.8Q486.3 255.1 486.9 254.7Q487.5 254.4 488.4 254.4L488.4 254.4Q489.2 254.4 489.8 254.7Q490.4 255.1 490.7 255.7Q491.0 256.3 491.0 257.2L491.0 257.2L491.0 262.1L488.9 262.1L488.9 257.6Q488.9 256.9 488.5 256.5Q488.2 256.1 487.5 256.1L487.5 256.1Q487.1 256.1 486.8 256.3Q486.5 256.5 486.3 256.8Q486.1 257.2 486.1 257.7ZM495.2 265.1L495.2 265.1Q494.2 265.1 493.5 264.8Q492.7 264.6 492.3 264.1Q491.9 263.6 491.7 263.0L491.7 263.0L493.7 262.7Q493.8 263.0 494.0 263.1Q494.2 263.3 494.5 263.5Q494.8 263.6 495.3 263.6L495.3 263.6Q496.0 263.6 496.4 263.3Q496.9 262.9 496.9 262.1L496.9 262.1L496.9 260.7L496.8 260.7Q496.6 261.1 496.4 261.3Q496.1 261.6 495.6 261.8Q495.2 262.0 494.6 262.0L494.6 262.0Q493.7 262.0 493.0 261.6Q492.3 261.2 491.9 260.4Q491.5 259.5 491.5 258.3L491.5 258.3Q491.5 257.0 491.9 256.1Q492.3 255.2 493.1 254.8Q493.8 254.4 494.6 254.4L494.6 254.4Q495.2 254.4 495.7 254.6Q496.1 254.8 496.4 255.1Q496.6 255.4 496.8 255.7L496.8 255.7L496.9 255.7L496.9 254.5L499.0 254.5L499.0 262.2Q499.0 263.1 498.5 263.8Q498.0 264.5 497.2 264.8Q496.3 265.1 495.2 265.1ZM495.3 260.4L495.3 260.4Q495.8 260.4 496.1 260.1Q496.5 259.9 496.7 259.4Q496.9 258.9 496.9 258.2L496.9 258.2Q496.9 257.6 496.7 257.1Q496.5 256.6 496.1 256.3Q495.8 256.0 495.3 256.0L495.3 256.0Q494.8 256.0 494.4 256.3Q494.0 256.6 493.9 257.1Q493.7 257.6 493.7 258.2L493.7 258.2Q493.7 258.9 493.9 259.4Q494.0 259.9 494.4 260.1Q494.8 260.4 495.3 260.4Z M501.5 254.5L506.2 254.5L506.2 256.0L501.5 256.0L501.5 254.5ZM504.7 262.1L502.6 262.1L502.6 253.9Q502.6 253.1 502.9 252.5Q503.2 252.0 503.8 251.7Q504.4 251.4 505.1 251.4L505.1 251.4Q505.6 251.4 506.0 251.5Q506.4 251.6 506.6 251.6L506.6 251.6L506.2 253.2Q506.1 253.2 505.9 253.2Q505.7 253.1 505.5 253.1L505.5 253.1Q505.1 253.1 504.9 253.3Q504.7 253.6 504.7 253.9L504.7 253.9L504.7 262.1ZM509.8 262.2L509.8 262.2Q508.6 262.2 507.8 261.7Q506.9 261.3 506.5 260.4Q506.0 259.5 506.0 258.3L506.0 258.3Q506.0 257.1 506.5 256.2Q506.9 255.3 507.8 254.8Q508.6 254.4 509.8 254.4L509.8 254.4Q510.9 254.4 511.8 254.8Q512.6 255.3 513.1 256.2Q513.5 257.1 513.5 258.3L513.5 258.3Q513.5 259.5 513.1 260.4Q512.6 261.3 511.8 261.7Q510.9 262.2 509.8 262.2ZM509.8 260.6L509.8 260.6Q510.3 260.6 510.7 260.3Q511.0 260.0 511.2 259.5Q511.4 259.0 511.4 258.3L511.4 258.3Q511.4 257.6 511.2 257.1Q511.0 256.6 510.7 256.3Q510.3 256.0 509.8 256.0L509.8 256.0Q509.3 256.0 508.9 256.3Q508.5 256.6 508.4 257.1Q508.2 257.6 508.2 258.3L508.2 258.3Q508.2 259.0 508.4 259.5Q508.5 260.0 508.9 260.3Q509.3 260.6 509.8 260.6ZM516.1 262.1L514.0 262.1L514.0 254.5L516.1 254.5L516.1 255.8L516.2 255.8Q516.4 255.1 516.9 254.7Q517.3 254.3 518.0 254.3L518.0 254.3Q518.1 254.3 518.3 254.4Q518.5 254.4 518.7 254.4L518.7 254.4L518.7 256.3Q518.5 256.3 518.2 256.2Q518.0 256.2 517.8 256.2L517.8 256.2Q517.3 256.2 516.9 256.4Q516.6 256.6 516.3 256.9Q516.1 257.3 516.1 257.8L516.1 257.8L516.1 262.1Z M522.8 265.0L522.8 265.0Q522.4 265.0 522.0 264.9Q521.7 264.8 521.4 264.7L521.4 264.7L521.9 263.2Q522.3 263.3 522.6 263.3Q522.9 263.3 523.1 263.1Q523.3 263.0 523.5 262.6L523.5 262.6L523.6 262.3L520.9 254.5L523.1 254.5L524.7 260.1L524.7 260.1L526.3 254.5L528.6 254.5L525.6 262.9Q525.4 263.5 525.0 264.0Q524.7 264.5 524.1 264.7Q523.5 265.0 522.8 265.0ZM532.0 262.2L532.0 262.2Q530.8 262.2 530.0 261.7Q529.1 261.3 528.7 260.4Q528.2 259.5 528.2 258.3L528.2 258.3Q528.2 257.1 528.7 256.2Q529.1 255.3 530.0 254.8Q530.8 254.4 532.0 254.4L532.0 254.4Q533.1 254.4 534.0 254.8Q534.8 255.3 535.3 256.2Q535.7 257.1 535.7 258.3L535.7 258.3Q535.7 259.5 535.3 260.4Q534.8 261.3 534.0 261.7Q533.1 262.2 532.0 262.2ZM532.0 260.6L532.0 260.6Q532.5 260.6 532.8 260.3Q533.2 260.0 533.4 259.5Q533.6 259.0 533.6 258.3L533.6 258.3Q533.6 257.6 533.4 257.1Q533.2 256.6 532.8 256.3Q532.5 256.0 532.0 256.0L532.0 256.0Q531.4 256.0 531.1 256.3Q530.7 256.6 530.5 257.1Q530.4 257.6 530.4 258.3L530.4 258.3Q530.4 259.0 530.5 259.5Q530.7 260.0 531.1 260.3Q531.4 260.6 532.0 260.6ZM541.1 258.8L541.1 258.8L541.1 254.5L543.2 254.5L543.2 262.1L541.2 262.1L541.2 260.7L541.1 260.7Q540.8 261.4 540.2 261.8Q539.6 262.2 538.8 262.2L538.8 262.2Q538.0 262.2 537.4 261.8Q536.9 261.5 536.5 260.9Q536.2 260.2 536.2 259.3L536.2 259.3L536.2 254.5L538.3 254.5L538.3 258.9Q538.3 259.6 538.7 260.0Q539.0 260.4 539.6 260.4L539.6 260.4Q540.0 260.4 540.4 260.2Q540.7 260.0 540.9 259.7Q541.1 259.4 541.1 258.8ZM545.2 262.2L545.2 262.2Q544.7 262.2 544.4 261.9Q544.0 261.5 544.0 261.0L544.0 261.0Q544.0 260.5 544.4 260.2Q544.7 259.8 545.2 259.8L545.2 259.8Q545.7 259.8 546.1 260.2Q546.4 260.5 546.4 261.0L546.4 261.0Q546.4 261.4 546.3 261.6Q546.1 261.9 545.8 262.1Q545.6 262.2 545.2 262.2Z "/></svg>